<?xml version="1.0" standalone="no"?>
<!DOCTYPE svg PUBLIC "-//W3C//DTD SVG 1.1//EN" "http://www.w3.org/Graphics/SVG/1.1/DTD/svg11.dtd" >
<svg xmlns="http://www.w3.org/2000/svg">
<metadata></metadata>
<defs>
<font id="DINBold" horiz-adv-x="1112" >
<font-face units-per-em="2048" ascent="1638" descent="-410" />
<missing-glyph horiz-adv-x="475" />
<glyph horiz-adv-x="0" />
<glyph horiz-adv-x="2048" />
<glyph unicode="&#xd;" horiz-adv-x="682" />
<glyph unicode=" "  horiz-adv-x="475" />
<glyph unicode="&#x09;" horiz-adv-x="475" />
<glyph unicode="&#xa0;" horiz-adv-x="475" />
<glyph unicode="!" horiz-adv-x="710" d="M229 1458h328l-63 -1001h-201zM252 0v272h283v-272h-283z" />
<glyph unicode="&#x22;" horiz-adv-x="950" d="M139 1026v432h250v-432h-250zM561 1026v432h248v-432h-248z" />
<glyph unicode="#" horiz-adv-x="1415" d="M123 389v250h182l33 221h-143v248h182l57 362h281l-58 -362h238l57 362h279l-55 -362h141v-248h-182l-33 -221h141v-250h-182l-62 -389h-280l63 389h-237l-62 -389h-280l61 389h-141zM584 639h237l33 221h-236z" />
<glyph unicode="$" horiz-adv-x="1267" d="M39 180l184 185q117 -117 326 -123v370l-66 9q-184 25 -285 125.5t-101.5 280t113.5 299.5t312 140v185h207v-183q246 -14 404 -168l-181 -178q-90 86 -252 99v-357l78 -12q186 -29 279 -115q112 -106 112 -297.5t-120.5 -305.5t-319.5 -138v-229h-207v221 q-303 10 -483 192zM371 1041.5q0 -66.5 45 -109.5t133 -55v342q-86 -12 -132 -61.5t-46 -116zM700 246q191 22 191 176q0 80 -42 120t-149 56v-352z" />
<glyph unicode="%" horiz-adv-x="1736" d="M106 987v203q0 133 85 206.5t212 73.5t212 -73.5t85 -206.5v-203q0 -133 -85 -206.5t-212 -73.5t-212 73.5t-85 206.5zM299 995q0 -117 104.5 -117t104.5 117v187q0 117 -104.5 116.5t-104.5 -116.5v-187zM420 0l690 1458h209l-690 -1458h-209zM1036 268v203 q0 133 85 207t212 74t212 -74t85 -207v-203q0 -133 -85 -206.5t-212 -73.5t-212 73.5t-85 206.5zM1229 276q0 -117 104.5 -117t104.5 117v187q0 117 -104.5 117t-104.5 -117v-187z" />
<glyph unicode="&#x26;" horiz-adv-x="1476" d="M123 434q0 213 262 387q-145 166 -145 313.5t104.5 241.5t279.5 94t276 -96t101 -244.5t-149 -257.5q-68 -51 -104 -75l245 -291q68 90 74 256h252q-16 -297 -156 -453l262 -309h-338l-106 127q-53 -43 -84 -63.5t-114 -48t-179 -27.5q-238 0 -359.5 116.5t-121.5 329.5z M381 425q0 -81 63.5 -138.5t170 -57.5t204.5 86l-291 342q-76 -53 -111.5 -102t-35.5 -130zM508 1138.5q0 -39.5 16 -70.5q22 -44 80 -107l62 40q84 60 84 117t-33 91t-89 34t-88 -32.5t-32 -72z" />
<glyph unicode="'" horiz-adv-x="530" d="M139 1026v432h252v-432h-252z" />
<glyph unicode="(" horiz-adv-x="688" d="M164 283v893q0 172 49 256t184 219l178 -178q-82 -82 -113.5 -137.5t-31.5 -172.5v-868q0 -117 31.5 -172t113.5 -137l-178 -179q-135 135 -184 219t-49 257z" />
<glyph unicode=")" horiz-adv-x="688" d="M111 -12q86 86 115.5 138t29.5 169v868q0 117 -30 169t-115 138l180 181q135 -135 184 -219t49 -256v-893q0 -172 -49 -256.5t-184 -219.5z" />
<glyph unicode="*" horiz-adv-x="1011" d="M113 942l225 119l-225 119l92 163l217 -137l-10 256h188l-8 -256l215 137l94 -163l-227 -119l227 -119l-94 -162l-215 135l8 -256h-188l10 256l-217 -135z" />
<glyph unicode="+" d="M102 442v250h330v328h250v-328h328v-250h-328v-327h-250v327h-330z" />
<glyph unicode="," horiz-adv-x="571" d="M139 291h293v-404l-293 -225v629z" />
<glyph unicode="-" horiz-adv-x="872" d="M121 461v248h631v-248h-631z" />
<glyph unicode="." horiz-adv-x="583" d="M139 0v303h305v-303h-305z" />
<glyph unicode="/" horiz-adv-x="825" d="M0 -152l584 1762h250l-584 -1762h-250z" />
<glyph unicode="0" d="M113 422v614q0 201 129 317.5t315 116.5t314 -116.5t128 -317.5v-614q0 -201 -128 -317.5t-314 -116.5t-315 116.5t-129 317.5zM379 424q0 -90 49 -143.5t129 -53.5t128 53.5t48 143.5v608q0 92 -48 145.5t-128 53.5t-129 -54.5t-49 -144.5v-608z" />
<glyph unicode="1" d="M211 913v287l297 258h266v-1458h-266v1171z" />
<glyph unicode="2" d="M121 0v240l545 632q76 90 75.5 174.5t-46.5 134.5t-126 50t-131 -44t-51 -143h-266q0 195 126 310.5t320.5 115.5t317.5 -114.5t123 -308.5q0 -98 -35 -166t-121 -168l-408 -473h564v-240h-887z" />
<glyph unicode="3" d="M86 418h266q2 -94 58.5 -142.5t142.5 -48.5t140.5 53.5t54.5 147.5t-54.5 148.5t-150.5 54.5h-39v231h39q92 0 138 50.5t46 135t-51 134t-127 49.5t-126 -47t-54 -129h-267q4 190 131 302.5t319 112.5t316.5 -116.5t124.5 -313t-168 -286.5q189 -101 189 -321 t-132 -332.5t-329 -112.5t-331 107.5t-136 322.5z" />
<glyph unicode="4" d="M63 207v252l500 999h291l-500 -999h305v272h256v-272h134v-252h-134v-207h-256v207h-596z" />
<glyph unicode="5" d="M117 408h266q23 -180 178 -181q80 0 132 52t52 213q0 262 -178 262q-137 0 -176 -119h-244v823h832v-239h-590v-314q78 74 235.5 74t256.5 -98q131 -131 131 -389q0 -133 -27 -221.5t-102 -164.5q-119 -119 -325 -118.5t-316 110.5t-125 310z" />
<glyph unicode="6" d="M98 438q0 139 123 389l307 631h291l-303 -602q45 18 109 18q156 0 269.5 -118.5t113.5 -321.5t-128 -324.5t-327 -121.5t-327 119.5t-128 330.5zM365 440.5q0 -98.5 52 -156t136 -57.5t136 57.5t52 154.5t-52 155.5t-136 58.5t-136 -57t-52 -155.5z" />
<glyph unicode="7" d="M102 989v469h928v-239l-473 -1219h-289l473 1219h-385v-230h-254z" />
<glyph unicode="8" d="M90 425q0 206 182 327q-164 115 -163.5 303t130.5 301.5t318 113.5t317.5 -113.5t129.5 -302t-164 -302.5q184 -123 184 -328t-132 -320.5t-335 -115.5t-335 115.5t-132 321.5zM356 428q0 -84 58.5 -142.5t142.5 -58.5t142.5 58.5t58.5 142.5t-58.5 143.5t-142.5 59.5 t-142.5 -59.5t-58.5 -143.5zM375 1045.5q0 -78.5 52 -131t130 -52.5t129 52.5t51 131.5t-51 132t-129 53t-130 -53.5t-52 -132z" />
<glyph unicode="9" d="M104 1024q0 203 128 324.5t327 121.5t327 -119.5t128 -330.5q0 -143 -121 -389l-309 -631h-289l303 602q-45 -18 -109 -18q-156 0 -270.5 118.5t-114.5 321.5zM371 1019q0 -97 52 -155.5t136 -58.5t136.5 57.5t52.5 155.5t-52.5 155.5t-136.5 57.5t-136 -57.5t-52 -154.5 z" />
<glyph unicode=":" horiz-adv-x="632" d="M190 0v303h304v-303h-304zM190 555v303h304v-303h-304z" />
<glyph unicode=";" horiz-adv-x="632" d="M190 555v303h304v-303h-304zM197 291h290v-404l-290 -225v629z" />
<glyph unicode="&#x3c;" horiz-adv-x="2103" d="M102 584l789 788h336l-668 -661h1440v-252h-1440l668 -664h-336z" />
<glyph unicode="=" d="M102 238v249h908v-249h-908zM102 682v250h908v-250h-908z" />
<glyph unicode="&#x3e;" horiz-adv-x="2103" d="M102 459v252h1442l-667 661h335l789 -788l-789 -789h-335l667 664h-1442z" />
<glyph unicode="?" horiz-adv-x="1071" d="M135 1061q0 186 123 297.5t306 111.5t308 -110.5t125 -298.5q0 -123 -100 -256l-152 -201q-37 -47 -36 -104v-43h-267v61q0 111 78 213l152 195q59 78 59 144.5t-45 113.5t-122 47t-120 -48t-43 -122h-266zM434 0v272h283v-272h-283z" />
<glyph unicode="@" horiz-adv-x="1552" d="M117 342v612q0 260 126 386t386 126h295q260 0 385 -124.5t125 -387.5v-960l-248 6v94q-98 -106 -253 -106t-251 102q-59 63 -77.5 147.5t-18.5 235t18.5 233t75.5 146.5q94 104 251 104t249 -100v92q0 137 -72 209t-205 72h-254q-133 0 -204.5 -72t-71.5 -209v-592 q0 -76 19.5 -116.5t70.5 -85.5l-184 -185q-90 82 -126 160t-36 213zM842 473q0 -131 36.5 -197.5t131 -66.5t132.5 67.5t38 196.5t-38 195.5t-132.5 66.5t-131 -65.5t-36.5 -196.5z" />
<glyph unicode="A" horiz-adv-x="1306" d="M10 0l531 1458h223l532 -1458h-297l-86 258h-518l-88 -258h-297zM475 498h363l-179 530z" />
<glyph unicode="B" horiz-adv-x="1347" d="M170 0v1458h586q211 0 330.5 -110.5t119.5 -298.5q0 -111 -56 -190t-124 -111q201 -95 201 -328q0 -199 -123 -309.5t-324 -110.5h-610zM455 254h297q92 0 141 51t49 129t-49 128t-141 50h-297v-358zM455 868h278q90 0 139.5 46.5t49.5 122t-49.5 121.5t-139.5 46h-278 v-336z" />
<glyph unicode="C" horiz-adv-x="1269" d="M121 729q0 129 2 182.5t14.5 141.5t43 146t83.5 112q160 160 381 160l1 -1q222 0 366.5 -118.5t181.5 -341.5h-289q-51 207 -246 207q-117 0 -182 -76q-43 -47 -57 -127t-14 -285t14 -284.5t57 -127.5q65 -75 179 -75h3q195 0 246 207h289q-37 -223 -182.5 -342 t-366.5 -119t-381 159q-53 53 -83.5 111.5t-43 147t-14.5 141.5t-2 182z" />
<glyph unicode="D" horiz-adv-x="1349" d="M170 0v1458h526q282 0 434 -194q21 -27 36 -61l27 -58q11 -25 17.5 -67t10.5 -62q8 -38 8 -136v-290q0 -100 -6 -131t-12.5 -74t-17.5 -69l-27 -60q-24 -56 -85 -117q-139 -139 -385 -139h-526zM455 254h215q139 0 213 90q39 47 50 130t11 259t-11 255t-50 126 q-74 90 -213 90h-215v-950z" />
<glyph unicode="E" horiz-adv-x="1239" d="M170 0v1458h960v-254h-675v-342h575v-254h-575v-354h675v-254h-960z" />
<glyph unicode="F" horiz-adv-x="1208" d="M170 0v1458h960v-254h-675v-358h575v-254h-575v-592h-285z" />
<glyph unicode="G" horiz-adv-x="1327" d="M121 729q0 129 2 182.5t14.5 141.5t43 146t83.5 112q160 160 394 160q1 0 2 -1q235 0 374.5 -133t171.5 -333h-286q-51 213 -263 213q-115 0 -182 -78q-43 -47 -56 -125t-13 -285t13 -285.5t56 -126.5q66 -76 186 -76q1 0 1 1q122 0 193 78t71 198v55h-269v238h551v-213 q0 -160 -31.5 -262.5t-107.5 -181.5q-160 -166 -402.5 -166t-402.5 159q-53 53 -83.5 111.5t-43 147t-14.5 141.5t-2 182z" />
<glyph unicode="H" horiz-adv-x="1402" d="M170 0v1458h285v-596h493v596h285v-1458h-285v610h-493v-610h-285z" />
<glyph unicode="I" horiz-adv-x="624" d="M170 0v1458h285v-1458h-285z" />
<glyph unicode="J" horiz-adv-x="1046" d="M6 137l189 187q82 -82 187 -82t166.5 63.5t61.5 186.5v966h285v-979q0 -231 -149.5 -361t-364.5 -130q-119 0 -207 34.5t-168 114.5z" />
<glyph unicode="K" horiz-adv-x="1361" d="M170 0v1458h285v-635l514 635h346l-484 -579l519 -879h-332l-375 664l-188 -226v-438h-285z" />
<glyph unicode="L" horiz-adv-x="1177" d="M170 0v1458h285v-1204h661v-254h-946z" />
<glyph unicode="M" horiz-adv-x="1660" d="M170 0v1458h281l380 -788l379 788h281v-1458h-285v850l-278 -553h-193l-280 553v-850h-285z" />
<glyph unicode="N" horiz-adv-x="1456" d="M170 0v1458h254l577 -893v893h285v-1458h-254l-577 895v-895h-285z" />
<glyph unicode="O" horiz-adv-x="1318" d="M121 729q0 129 2 182.5t14.5 141.5t43 146t83.5 112q160 160 393 160l1 -1q234 0 395 -159q106 -106 129 -257q16 -112 16 -281t-2 -226.5t-14 -142.5q-22 -148 -129 -257q-160 -160 -394 -160l-1 1q-235 0 -394 159q-53 53 -83.5 111.5t-43 147t-14.5 141.5t-2 182z M406 729q0 -207 13 -284.5t56 -125.5q68 -78 182 -77h1q116 0 184 77q43 47 57 126t14 284t-14 284t-57 126q-68 78 -184 78t-183 -78q-43 -47 -56 -125t-13 -285z" />
<glyph unicode="P" horiz-adv-x="1286" d="M170 0v1458h565q219 0 350.5 -131t131.5 -323.5t-131.5 -323.5t-350.5 -131h-280v-549h-285zM455 805h266q96 0 153.5 54t57.5 144.5t-57.5 145.5t-153.5 55h-266v-399z" />
<glyph unicode="Q" horiz-adv-x="1316" d="M121 729q0 129 2 182.5t14.5 141.5t43 146t83.5 112q160 160 393 160l1 -1q234 0 395 -159q106 -106 129 -257q16 -112 16 -290t-3 -243.5t-23.5 -155t-63.5 -152.5l125 -125l-150 -149l-129 129q-123 -80 -295 -80q-236 0 -395 159q-53 53 -83.5 111.5t-43 147 t-14.5 141.5t-2 182zM406 729q0 -207 13 -284.5t56 -125.5q67 -77 181 -77h3q55 0 95 26l-127 125l151 150l109 -109q26 76 26 288t-14 291t-57 126q-68 78 -184 78t-183 -78q-43 -47 -56 -125t-13 -285z" />
<glyph unicode="R" horiz-adv-x="1339" d="M170 0v1458h571q217 0 345 -129t128 -317q0 -145 -75.5 -243.5t-190.5 -139.5l326 -629h-330l-285 582h-204v-582h-285zM455 819h268q92 0 149.5 53.5t57.5 139.5t-57.5 139t-149.5 53h-268v-385z" />
<glyph unicode="S" horiz-adv-x="1210" d="M39 180l184 185q123 -123 352 -123q258 0 259 180q0 80 -43.5 120t-131.5 54l-176 25q-186 27 -286 125q-101 99 -101 291q0 189 138 311t370 122q295 0 471 -170l-180 -178q-104 100 -299 101q-109 0 -167 -52.5t-58 -124t46 -114.5t132 -55l172 -25q184 -27 278 -113 q113 -106 113 -311t-152.5 -322.5t-388.5 -117.5q-174 0 -301 44t-231 148z" />
<glyph unicode="T" horiz-adv-x="1169" d="M61 1204v254h1047v-254h-381v-1204h-285v1204h-381z" />
<glyph unicode="U" horiz-adv-x="1368" d="M147 500v958h285v-948q0 -125 67.5 -196.5t184.5 -71.5t185.5 71.5t68.5 196.5v948h283v-958q0 -227 -154 -369.5t-383 -142.5t-383 142t-154 370z" />
<glyph unicode="V" horiz-adv-x="1189" d="M6 1458h295l293 -950l293 950h297l-484 -1458h-213z" />
<glyph unicode="W" horiz-adv-x="1816" d="M12 1458h297l226 -919l266 919h213l266 -919l227 919h297l-391 -1458h-237l-269 885l-268 -885h-238z" />
<glyph unicode="X" horiz-adv-x="1234" d="M10 0l453 748l-424 710h323l254 -471l256 471h322l-424 -710l455 -748h-326l-283 508l-280 -508h-326z" />
<glyph unicode="Y" horiz-adv-x="1171" d="M6 1458h309l273 -588l268 588h309l-438 -860v-598h-283v598z" />
<glyph unicode="Z" horiz-adv-x="1122" d="M82 0v229l623 975h-596v254h931v-225l-624 -979h624v-254h-958z" />
<glyph unicode="[" horiz-adv-x="774" d="M164 -152v1762h526v-240h-260v-1282h260v-240h-526z" />
<glyph unicode="\" horiz-adv-x="825" d="M0 1583h250l575 -1735h-250z" />
<glyph unicode="]" horiz-adv-x="774" d="M86 86h260v1286h-260v238h526v-1762h-526v238z" />
<glyph unicode="^" horiz-adv-x="1232" d="M129 797l365 676h245l365 -676h-279l-209 385l-208 -385h-279z" />
<glyph unicode="_" horiz-adv-x="1232" d="M0 -186h1233v-179h-1233v179z" />
<glyph unicode="`" horiz-adv-x="1024" d="M213 1585h281l131 -348h-179z" />
<glyph unicode="a" horiz-adv-x="1093" d="M74 317.5q0 141.5 93 228.5t271 87h252v53q0 88 -47 128t-137 40t-133 -19.5t-86 -68.5l-170 166q76 84 162 115.5t223 31.5q455 0 454 -377v-702h-260v92q-55 -55 -113.5 -78.5t-148.5 -23.5q-178 0 -269 93t-91 234.5zM330 330q0 -123 153 -123q115 0 161 44t46 142v58 h-211q-72 0 -110.5 -32t-38.5 -89z" />
<glyph unicode="b" horiz-adv-x="1146" d="M150 0v1458h266v-485q96 106 259 106t259 -96q49 -49 74.5 -133t29.5 -146.5t4 -169t-4 -169t-29.5 -147.5t-74.5 -134q-96 -96 -261 -96t-265 112v-100h-258zM416 573.5q0 -112.5 6 -162t23.5 -94.5t55.5 -67.5t95 -22.5t95 22.5t55.5 67.5t23.5 94.5t6 162.5 t-34.5 189.5t-145.5 76.5t-145.5 -77t-34.5 -189.5z" />
<glyph unicode="c" horiz-adv-x="983" d="M96 534.5q0 124.5 30 222t77 157t111 98.5q111 67 259 67q215 0 353 -143l-181 -180q-78 84 -172 84t-152 -72q-59 -73 -59 -237q0 -160 58 -232t153 -72t172 84l181 -178q-139 -145 -353 -145q-143 0 -259 68q-133 79 -188 256q-30 98 -30 222.5z" />
<glyph unicode="d" horiz-adv-x="1148" d="M104 534.5q0 106.5 4.5 169t30 146.5t74.5 133q96 96 260 96t260 -106v485h266v-1458h-260v100q-99 -112 -262 -112h-3q-267 0 -336 230q-25 85 -29.5 147.5t-4.5 169zM371 573.5q0 -112.5 6 -162t23 -94.5q36 -90 149 -90t148.5 78t35.5 229.5t-35.5 228.5t-146.5 77 t-145.5 -77t-34.5 -189.5z" />
<glyph unicode="e" horiz-adv-x="1122" d="M96 535q0 256 127 400t341 144t338 -142t124 -368v-118h-668q0 -106 62.5 -172t159 -66t148.5 23.5t106 76.5l161 -157q-88 -88 -178 -128t-209.5 -40t-202.5 25.5t-155 84.5q-154 128 -154 437zM358 633h406q-2 63 -25 115q-49 111 -177 111l-1 -1q-129 0 -178 -110 q-23 -51 -25 -115z" />
<glyph unicode="f" horiz-adv-x="700" d="M72 834v202h110v133q0 125 80 215.5t232 90.5h151v-226h-104q-92 0 -92 -96v-117h196v-202h-196v-834h-267v834h-110z" />
<glyph unicode="g" horiz-adv-x="1136" d="M104 563q0 164 19.5 258t89.5 164q94 94 254 94t262 -112v100h258v-1028q0 -195 -128 -318.5t-341 -123.5q-127 0 -217 30.5t-170 108.5l166 168q84 -82 202 -82t170 64.5t52 156.5v109q-96 -106 -255 -106q-1 -1 -2 -1q-157 0 -251 94q-70 70 -89.5 165t-19.5 259z M371 594q0 -92 5 -135t21.5 -86t53 -65.5t94 -22.5t94.5 22.5t53.5 65.5t22.5 86t6 138t-35 169t-141 74q-111 0 -147 -86q-27 -68 -27 -160z" />
<glyph unicode="h" horiz-adv-x="1165" d="M150 0v1458h266v-489q109 111 266 111h2q158 0 251 -108t93 -282v-690h-266v651q0 98 -51.5 143.5t-123 45.5t-121.5 -46t-50 -143v-651h-266z" />
<glyph unicode="i" horiz-adv-x="563" d="M145 1249v217h273v-217h-273zM150 0v1067h266v-1067h-266z" />
<glyph unicode="j" horiz-adv-x="563" d="M-47 -174h102q94 0 95 96v1145h266v-1161q0 -125 -79 -215t-233 -90h-151v225zM145 1249v217h273v-217h-273z" />
<glyph unicode="k" horiz-adv-x="1144" d="M150 0v1458h266v-827l354 436h322l-381 -430l409 -637h-329l-263 444l-112 -127v-317h-266z" />
<glyph unicode="l" horiz-adv-x="665" d="M139 305v1153h267v-1136q0 -96 94 -97h102v-225h-151q-154 0 -233 90t-79 215z" />
<glyph unicode="m" horiz-adv-x="1794" d="M150 0v1067h260v-98q106 111 276 111h2q172 0 270 -136q129 135 308.5 135t273.5 -94q117 -117 117 -303v-682h-266v645q0 100 -52.5 147.5t-124 47.5t-125 -46t-53.5 -143v-651h-266v645q0 100 -52 147.5t-125 47.5t-125 -47.5t-52 -147.5v-645h-266z" />
<glyph unicode="n" horiz-adv-x="1173" d="M150 0v1067h260v-98q104 111 263 111h1q160 0 261.5 -102t100.5 -296v-682h-266v645q0 100 -52 147.5t-125 47.5t-125 -47.5t-52 -147.5v-645h-266z" />
<glyph unicode="o" d="M104 534q0 153 26 248t95 166q123 131 331 131t331 -131q70 -72 95.5 -166.5t25.5 -247.5t-26 -248.5t-95 -166.5q-123 -131 -331 -131t-331 131q-70 72 -95.5 167t-25.5 248zM371 534q0 -198 54 -252.5t131 -54.5t131 54.5t54 252.5t-61 259q-47 47 -124 47t-124 -47 q-61 -61 -61 -259z" />
<glyph unicode="p" horiz-adv-x="1146" d="M150 -391v1458h258v-100q100 113 264 113h1q165 -1 261 -97q49 -49 74.5 -133t29.5 -146.5t4 -169t-4 -169t-29.5 -147.5t-74.5 -134q-96 -96 -259 -96t-259 106v-485h-266zM416 573.5q0 -112.5 6 -162t23.5 -94.5t55.5 -67.5t95 -22.5t95 22.5t55.5 67.5t23.5 94.5 t6 162.5t-34.5 189.5t-145.5 76.5t-145.5 -77t-34.5 -189.5z" />
<glyph unicode="q" horiz-adv-x="1148" d="M104 534.5q0 106.5 4.5 169t29.5 146.5q70 229 337 229q164 0 264 -112v100h260v-1458h-266v485q-96 -106 -260 -106t-260 96q-49 49 -74.5 134t-30 147.5t-4.5 169zM371 573.5q0 -112.5 6 -162t23 -94.5q36 -90 149 -90t148.5 78t35.5 229.5t-35.5 228.5t-146.5 77 t-145.5 -77t-34.5 -189.5z" />
<glyph unicode="r" horiz-adv-x="931" d="M150 0v1067h260v-102q41 49 113.5 81.5t154.5 32.5q152 0 252 -100l-201 -203q-63 64 -136 64h-1q-72 0 -124 -52t-52 -145v-643h-266z" />
<glyph unicode="s" horiz-adv-x="1026" d="M45 141l174 174q100 -100 285 -100q78 0 133 27.5t55 83.5q0 88 -112 98l-168 16q-311 31 -312 299q0 160 120 250t292 90q274 0 408 -125l-164 -166q-80 72 -248 72q-76 0 -114 -29.5t-38 -72.5q0 -82 111 -92l168 -17q156 -14 236.5 -95t80.5 -218q0 -170 -127 -259 t-299.5 -89t-280.5 30.5t-200 122.5z" />
<glyph unicode="t" horiz-adv-x="720" d="M61 834v202h113v316h266v-316h189v-202h-189v-512q0 -96 92 -97h97v-225h-146q-152 0 -230.5 90t-78.5 215v529h-113z" />
<glyph unicode="u" horiz-adv-x="1173" d="M137 385v682h266v-645q0 -100 52.5 -147.5t125.5 -47.5t125 47.5t52 147.5v645h266v-1067h-260v98q-104 -111 -263 -111l-1 1q-160 0 -261.5 101.5t-101.5 295.5z" />
<glyph unicode="v" horiz-adv-x="1009" d="M8 1067h281l217 -659l215 659h280l-391 -1067h-209z" />
<glyph unicode="w" horiz-adv-x="1554" d="M8 1067h283l172 -659l217 659h194l220 -659l172 659h280l-325 -1067h-220l-223 670l-223 -670h-219z" />
<glyph unicode="x" horiz-adv-x="1079" d="M25 0l368 545l-354 522h319l181 -305l182 305h319l-354 -522l369 -545h-320l-196 319l-195 -319h-319z" />
<glyph unicode="y" horiz-adv-x="1011" d="M8 1067h281l221 -659l213 659h281l-457 -1239q-35 -92 -80 -137q-82 -82 -229 -82h-105v239h62q57 0 84.5 19.5t48.5 77.5l45 131z" />
<glyph unicode="z" horiz-adv-x="978" d="M76 0v203l473 624h-447v240h787v-203l-479 -624h479v-240h-813z" />
<glyph unicode="{" horiz-adv-x="935" d="M88 610v238h94q142 0 142 162v297q0 141 81 222t234 81h209v-240h-109q-88 0 -118.5 -32t-30.5 -128v-276q0 -68 -26.5 -114t-51.5 -61.5t-63 -29.5q39 -14 63.5 -29.5t51 -61.5t26.5 -114v-276q0 -96 31 -128t118 -32h109v-240h-209q-154 0 -234.5 81t-80.5 223v297 q0 88 -37 124.5t-105 36.5h-94z" />
<glyph unicode="|" horiz-adv-x="716" d="M225 -152v1762h267v-1762h-267z" />
<glyph unicode="}" horiz-adv-x="935" d="M88 88h109q88 0 118.5 32t30.5 128v276q0 68 26.5 114t51.5 61.5t63 29.5q-39 14 -63.5 29.5t-51 61.5t-26.5 114v276q0 96 -31 128t-118 32h-109v240h209q154 0 234.5 -81t80.5 -222v-297q0 -162 142 -162h94v-238h-94q-142 0 -142 -161v-297q0 -141 -81 -222.5 t-234 -81.5h-209v240z" />
<glyph unicode="~" horiz-adv-x="1241" d="M76 600q98 98 170.5 137t173.5 39t213 -59t194 -59.5t168 85.5l170 -168q-96 -96 -170.5 -136t-175.5 -40t-213 59.5t-194 59.5t-168 -86z" />
<glyph unicode="&#xad;" horiz-adv-x="872" d="M121 461v248h631v-248h-631z" />
<glyph unicode="&#x2000;" horiz-adv-x="836" />
<glyph unicode="&#x2001;" horiz-adv-x="1673" />
<glyph unicode="&#x2002;" horiz-adv-x="836" />
<glyph unicode="&#x2003;" horiz-adv-x="1673" />
<glyph unicode="&#x2004;" horiz-adv-x="557" />
<glyph unicode="&#x2005;" horiz-adv-x="418" />
<glyph unicode="&#x2006;" horiz-adv-x="278" />
<glyph unicode="&#x2007;" horiz-adv-x="278" />
<glyph unicode="&#x2008;" horiz-adv-x="209" />
<glyph unicode="&#x2009;" horiz-adv-x="334" />
<glyph unicode="&#x200a;" horiz-adv-x="92" />
<glyph unicode="&#x2010;" horiz-adv-x="872" d="M121 461v248h631v-248h-631z" />
<glyph unicode="&#x2011;" horiz-adv-x="872" d="M121 461v248h631v-248h-631z" />
<glyph unicode="&#x2012;" horiz-adv-x="872" d="M121 461v248h631v-248h-631z" />
<glyph unicode="&#x2013;" d="M102 461v248h908v-248h-908z" />
<glyph unicode="&#x2014;" horiz-adv-x="2103" d="M121 463v256h1861v-256h-1861z" />
<glyph unicode="&#x2018;" horiz-adv-x="559" d="M139 1206v252l279 215v-467h-279z" />
<glyph unicode="&#x2019;" horiz-adv-x="559" d="M139 993v465h279v-254z" />
<glyph unicode="&#x201c;" horiz-adv-x="987" d="M139 1206v252l277 215v-467h-277zM569 1206v252l279 215v-467h-279z" />
<glyph unicode="&#x201d;" horiz-adv-x="987" d="M139 993v465h277v-254zM569 993v465h279v-254z" />
<glyph unicode="&#x2026;" horiz-adv-x="1732" d="M139 0v289h291v-289h-291zM721 0v289h289v-289h-289zM1305 0v289h288v-289h-288z" />
<glyph unicode="&#x202f;" horiz-adv-x="334" />
<glyph unicode="&#x205f;" horiz-adv-x="418" />
<glyph unicode="&#xe000;" horiz-adv-x="1065" d="M0 0v1065h1065v-1065h-1065z" />
</font>
</defs>
</svg>
