<?xml version="1.0" standalone="no"?>
<!DOCTYPE svg PUBLIC "-//W3C//DTD SVG 1.1//EN" "http://www.w3.org/Graphics/SVG/1.1/DTD/svg11.dtd" >
<svg xmlns="http://www.w3.org/2000/svg">
<metadata></metadata>
<defs>
<font id="aspiraheavy" horiz-adv-x="1384" >
<font-face units-per-em="2048" ascent="1592" descent="-456" />
<missing-glyph horiz-adv-x="476" />
<glyph unicode="&#xfb03;" horiz-adv-x="2067" d="M41 742v260h169v116q0 182 96.5 277t279.5 95q91 0 236 -34l-35 -246q-74 17 -125 17q-80 0 -109.5 -42t-29.5 -132v-51h189v-260h-189v-742h-313v742h-169zM781 742v260h168v116q0 182 96.5 277t279.5 95q84 0 211 -28l-36 -246q-55 11 -98 11q-79 0 -109 -42t-30 -132 v-51h237v-260h-237v-742h-314v742h-168zM1614 1305q0 76 53.5 129.5t129.5 53.5q75 0 128.5 -53.5t53.5 -129.5q0 -75 -53.5 -128.5t-128.5 -53.5q-76 0 -129.5 53.5t-53.5 128.5zM1639 0v1002h314v-1002h-314z" />
<glyph unicode="&#xfb04;" horiz-adv-x="2087" d="M41 742v260h169v116q0 182 96.5 277t279.5 95q91 0 236 -34l-35 -246q-74 17 -124 17q-80 0 -109.5 -42t-29.5 -132v-51h188v-260h-188v-742h-314v742h-169zM781 742v260h168v116q0 182 97 277t280 95q83 0 210 -28l-35 -246q-57 11 -99 11q-80 0 -109.5 -42t-29.5 -132 v-51h238v-260h-238v-742h-314v742h-168zM1633 250v1187l312 53v-1109q0 -67 16 -100t64 -57l-40 -244q-93 0 -171.5 29t-129.5 92t-51 149z" />
<glyph horiz-adv-x="0" />
<glyph horiz-adv-x="682" />
<glyph unicode=" "  horiz-adv-x="476" />
<glyph unicode="&#x09;" horiz-adv-x="476" />
<glyph unicode="&#xa0;" horiz-adv-x="476" />
<glyph unicode="!" horiz-adv-x="627" d="M126 167q0 78 55 133t133 55q77 0 132 -55t55 -133t-55 -132.5t-132 -54.5q-78 0 -133 54.5t-55 132.5zM147 1424h334l-32 -954h-271z" />
<glyph unicode="&#x22;" horiz-adv-x="888" d="M79 1341q0 64 46.5 106.5t111.5 42.5q64 0 110.5 -41.5t46.5 -108.5q0 -39 -72 -421q-14 -73 -22 -115h-127q-88 473 -93 513q-1 14 -1 24zM494 1341q0 64 46 106.5t111 42.5q64 0 111 -41.5t47 -108.5q0 -39 -72 -421q-5 -24 -7.5 -37.5t-6.5 -36t-8 -41.5h-128 q-88 473 -92 519q-1 10 -1 18z" />
<glyph unicode="#" horiz-adv-x="1208" d="M69 399v206h223l32 216h-202v206h233l60 397h210l-60 -397h186l60 397h210l-60 -397h177v-206h-208l-32 -216h182v-206h-212l-60 -399h-210l59 399h-186l-59 -399h-210l60 399h-193zM502 605h186l33 216h-186z" />
<glyph unicode="$" horiz-adv-x="1178" d="M62 182l140 220q195 -135 382 -135q95 0 146 34.5t51 95.5q0 50 -37.5 83t-97.5 52t-132 35.5t-144.5 43.5t-132.5 67t-97.5 113.5t-37.5 175.5q0 178 105 288t277 138v194h212v-192q220 -28 391 -164l-138 -213q-164 105 -333 105q-91 0 -143.5 -35t-52.5 -98 q0 -40 23.5 -68.5t63.5 -45.5t91.5 -30t108.5 -27t113.5 -31t108 -46.5t91.5 -69.5t63.5 -104.5t23.5 -147.5q0 -191 -115.5 -302t-303.5 -133v-190h-217v195q-222 35 -409 192z" />
<glyph unicode="%" horiz-adv-x="1765" d="M64 1008q0 203 86.5 315t242.5 112t242.5 -111t86.5 -315q0 -203 -86 -313.5t-243 -110.5t-243 110t-86 313zM282 1012q0 -119 28.5 -181t82.5 -62t82.5 62t28.5 181q0 115 -28.5 176.5t-82.5 61.5q-111 0 -111 -238zM350 -41l849 1506h216l-849 -1506h-216zM1043 413 q0 203 87 314.5t243 111.5t242 -111.5t86 -314.5t-86 -313t-242 -110q-157 0 -243.5 110t-86.5 313zM1261 417q0 -118 29 -181t83 -63q53 0 81.5 62.5t28.5 181.5q0 237 -110 237q-55 0 -83.5 -61t-28.5 -176z" />
<glyph unicode="&#x26;" horiz-adv-x="1374" d="M110 411q0 124 59.5 216t162.5 168q-112 151 -112 302q0 142 106 245t260 103t254 -104.5t100 -255.5q0 -108 -52 -185.5t-144 -145.5l214 -237q83 114 128 232l246 -97q-55 -167 -192 -336l287 -316h-395l-102 116q-189 -136 -379 -136t-315.5 124.5t-125.5 306.5z M400 407q0 -71 46 -113t121 -42q89 0 186 63l-245 277q-108 -87 -108 -185zM485 1105q0 -63 80 -153q111 80 111 155q0 42 -27 69t-67 27q-41 0 -69 -27.5t-28 -70.5z" />
<glyph unicode="'" horiz-adv-x="473" d="M79 1341q0 64 46.5 106.5t111.5 42.5q64 0 110.5 -41.5t46.5 -108.5q0 -39 -72 -421q-14 -73 -22 -115h-127q-88 473 -93 513q-1 14 -1 24z" />
<glyph unicode="(" horiz-adv-x="653" d="M71 570q0 632 359 918l181 -150q-66 -62 -113 -155.5t-70.5 -201.5t-33 -206.5t-9.5 -204.5t9.5 -205t33 -206.5t70.5 -201t113 -155.5l-181 -151q-359 286 -359 919z" />
<glyph unicode=")" horiz-adv-x="653" d="M42 -198q66 62 113 155.5t70.5 201t33.5 206.5t10 205q0 105 -10 204t-33.5 206.5t-70.5 201.5t-113 156l182 150q359 -286 359 -918q0 -633 -359 -919z" />
<glyph unicode="*" horiz-adv-x="936" d="M73 983v180h236l-119 206l161 91l117 -203l118 203l160 -91l-119 -206h236v-180h-238l119 -208l-158 -87l-118 202l-117 -202l-161 89l119 206h-236z" />
<glyph unicode="+" horiz-adv-x="1142" d="M65 475v249h379v381h253v-381h381v-249h-381v-383h-253v383h-379z" />
<glyph unicode="," horiz-adv-x="543" d="M17 -259q86 46 115 71q54 48 54 109q0 33 -16.5 65t-36 53.5t-36 56.5t-16.5 74q0 74 51.5 129.5t132.5 55.5q92 0 142.5 -71.5t50.5 -175.5q0 -159 -111 -304.5t-275 -194.5z" />
<glyph unicode="-" horiz-adv-x="769" d="M109 422v239h552v-239h-552z" />
<glyph unicode="." horiz-adv-x="537" d="M81 167q0 78 55 133t133 55q77 0 132.5 -55t55.5 -133t-55 -132.5t-133 -54.5t-133 54.5t-55 132.5z" />
<glyph unicode="/" horiz-adv-x="935" d="M52 -164l577 1638h259l-578 -1638h-258z" />
<glyph unicode="0" horiz-adv-x="1247" d="M84 688q0 340 142 527t398 187t397.5 -186.5t141.5 -526.5t-141 -524.5t-398 -184.5q-256 0 -398 184t-142 524zM407 694q0 -210 56.5 -321.5t160.5 -111.5t160 111t56 322q0 207 -55 316t-161 109t-161.5 -109.5t-55.5 -315.5z" />
<glyph unicode="1" horiz-adv-x="1020" d="M108 0v281h285v668h-279v242q82 0 156.5 19.5t133 66t71.5 112.5h235v-1108h261v-281h-863z" />
<glyph unicode="2" horiz-adv-x="1133" d="M60 1152q71 113 200 181.5t287 68.5q135 0 242.5 -51t172 -151t64.5 -234q0 -80 -24 -151.5t-64.5 -125.5t-90 -101t-103.5 -87t-101.5 -74.5t-88 -72.5t-58.5 -73h549v-281h-961v216q35 79 89 150t111.5 122.5t119.5 99t116.5 89t98 83t69 90t25.5 101.5q0 80 -52.5 126 t-137.5 46q-79 0 -155.5 -39.5t-125.5 -102.5z" />
<glyph unicode="3" horiz-adv-x="1126" d="M39 203l173 187q61 -64 140.5 -100t157.5 -36q94 0 157.5 49.5t63.5 129.5q0 63 -41.5 105t-107.5 58q-63 16 -234 18v230q161 0 234 27q95 36 95 120q0 61 -46 98t-131 37q-136 0 -263 -104l-148 196q74 81 190.5 132.5t255.5 51.5q201 0 333.5 -107t132.5 -284 q0 -193 -170 -272q93 -35 155 -118t62 -209q0 -104 -45.5 -188.5t-120 -136.5t-165 -79.5t-186.5 -27.5q-139 0 -269 57t-223 166z" />
<glyph unicode="4" horiz-adv-x="1201" d="M30 271v198l668 920h248v-869h197v-249h-201v-271h-301v271h-611zM343 520h298v400z" />
<glyph unicode="5" horiz-adv-x="1133" d="M49 194l162 194q132 -134 292 -134q106 0 170 62t64 152q0 92 -66 146.5t-170 54.5q-108 0 -226 -78l-161 125l113 666h769v-269h-517l-40 -229q77 36 175 36q62 0 123 -16t119 -51.5t102.5 -86.5t71.5 -126.5t27 -165.5q0 -150 -71 -263.5t-190 -172t-265 -58.5 q-148 0 -272 59t-210 155z" />
<glyph unicode="6" horiz-adv-x="1152" d="M80 596q0 167 45.5 313t129.5 256t213.5 173.5t288.5 63.5q110 0 190 -31l-38 -256q-54 10 -125 10q-148 0 -252 -84.5t-131 -220.5l1 -1q105 100 261 100q83 0 160 -32.5t136 -91t94 -146.5t35 -191q0 -213 -137.5 -345.5t-365.5 -132.5q-131 0 -230 47.5t-158 132.5 t-88 194t-29 242zM383 452q0 -89 57.5 -147t149.5 -58q91 0 148.5 57.5t57.5 149.5q0 91 -56.5 145t-146.5 54q-93 0 -151.5 -56t-58.5 -145z" />
<glyph unicode="7" horiz-adv-x="1053" d="M52 1106v276h977v-234q-203 -278 -331 -552.5t-191 -595.5h-336q56 314 168.5 579t295.5 527h-583z" />
<glyph unicode="8" horiz-adv-x="1156" d="M74 428q0 64 18 120.5t48.5 97.5t61 69t63.5 49q-122 97 -122 252q0 161 123.5 273.5t313.5 112.5q189 0 311.5 -112.5t122.5 -274.5q0 -158 -121 -251q34 -21 63.5 -48.5t59.5 -68t48 -97t18 -120.5q0 -190 -144.5 -320t-359.5 -130q-216 0 -360 130t-144 318zM373 431 q0 -85 59.5 -136.5t146.5 -51.5q89 0 146.5 54t57.5 135t-57 136t-148 55q-92 0 -148.5 -55.5t-56.5 -136.5zM435 1001q0 -61 40.5 -98.5t102.5 -37.5q64 0 104.5 39.5t40.5 98.5q0 58 -41 96t-104 38q-64 0 -103.5 -38t-39.5 -98z" />
<glyph unicode="9" horiz-adv-x="1152" d="M65 924q0 213 137.5 345.5t365.5 132.5q131 0 229.5 -47.5t157.5 -132.5t88 -194t29 -242q0 -167 -45 -313t-129 -256t-213.5 -173.5t-288.5 -63.5q-112 0 -190 30l38 257q56 -10 125 -10q148 0 252 84.5t131 220.5l-1 1q-105 -100 -261 -100q-83 0 -160 32.5t-136 91 t-94 146.5t-35 191zM357 928q0 -91 56.5 -145t146.5 -54q93 0 151 56t58 145t-57.5 147t-148.5 58t-148.5 -57.5t-57.5 -149.5z" />
<glyph unicode=":" horiz-adv-x="574" d="M100 167q0 78 54.5 133t132.5 55t133 -55t55 -133t-55 -132.5t-133 -54.5t-132.5 54.5t-54.5 132.5zM100 820q0 78 54.5 133t132.5 55t133 -55t55 -133t-55 -133t-133 -55t-132.5 55t-54.5 133z" />
<glyph unicode=";" horiz-adv-x="584" d="M41 -259q87 46 116 72q52 47 52 108q0 33 -16.5 65t-36 53.5t-36 56.5t-16.5 74q0 74 52 129.5t133 55.5q92 0 142 -71.5t50 -175.5q0 -159 -111 -304.5t-275 -194.5zM104 820q0 78 55.5 133t132.5 55q78 0 133 -55t55 -133t-55 -133t-133 -55q-77 0 -132.5 55t-55.5 133 z" />
<glyph unicode="&#x3c;" horiz-adv-x="1241" d="M65 491v215l1049 428v-260l-682 -276l682 -275v-260z" />
<glyph unicode="=" horiz-adv-x="1240" d="M114 253v250h1014v-250h-1014zM114 694v249h1014v-249h-1014z" />
<glyph unicode="&#x3e;" horiz-adv-x="1241" d="M128 63v260l682 275l-682 276v260l1049 -428v-215z" />
<glyph unicode="?" horiz-adv-x="1083" d="M53 1182q65 119 191.5 191t287.5 72q97 0 182 -27.5t152 -80t105.5 -136.5t38.5 -189q0 -75 -20.5 -133.5t-53 -94t-71.5 -63.5t-78.5 -51.5t-72 -49t-53 -63t-20.5 -87.5h-277q0 91 18 160t46.5 109t63 69.5t69 49.5t63 39.5t46.5 48.5t18 69q0 66 -46 104.5t-132 38.5 q-166 0 -276 -144zM315 167q0 78 55.5 133t132.5 55q78 0 133 -55t55 -133t-55 -132.5t-133 -54.5t-133 54.5t-55 132.5z" />
<glyph unicode="@" horiz-adv-x="1704" d="M73 455q0 168 58 321t161 268.5t257 184.5t334 69q210 0 377.5 -89t262 -247t94.5 -356q0 -143 -48.5 -263.5t-148 -197.5t-233.5 -77q-179 0 -214 148q-102 -164 -252 -164q-129 0 -201.5 100.5t-72.5 250.5q0 95 31.5 182.5t90 156t151 109.5t204.5 41q73 0 159.5 -16 t140.5 -37q-52 -343 -56 -416q-1 -21 -1 -39q0 -142 90 -142q69 0 110.5 91t41.5 262q0 103 -36 197.5t-101.5 168t-168 117t-226.5 43.5q-170 0 -306.5 -85.5t-213 -235.5t-76.5 -334q0 -175 69.5 -309t201.5 -209.5t308 -75.5q144 0 270 47l39 -160q-151 -56 -330 -56 q-172 0 -315.5 56.5t-242 155.5t-153.5 238t-55 302zM687 409q0 -73 24 -116.5t69 -43.5q58 0 103 71t71 191q18 84 20 193q-27 8 -61 8q-89 0 -157.5 -88t-68.5 -215z" />
<glyph unicode="A" d="M6 0l496 1424h377l503 -1424h-359l-98 310h-482l-96 -310h-341zM525 583h316l-159 500z" />
<glyph unicode="B" horiz-adv-x="1272" d="M150 0v1424h501q231 0 352.5 -94.5t121.5 -270.5q0 -206 -175 -303q112 -33 185.5 -123.5t73.5 -220.5q0 -176 -134.5 -294t-346.5 -118h-578zM472 283h216q84 0 136.5 40t52.5 118q0 79 -55 119t-148 40h-202v-317zM472 864h163q70 0 116.5 37.5t46.5 106.5t-47 101.5 t-126 32.5h-153v-278z" />
<glyph unicode="C" horiz-adv-x="1343" d="M68 707q0 206 94.5 375.5t260 266t367.5 96.5q143 0 282.5 -50t239.5 -139l-142 -220q-167 120 -344 120q-189 0 -306 -128t-117 -314q0 -120 49.5 -219t147.5 -160t225 -61q181 0 345 119l144 -227q-96 -87 -239.5 -136.5t-291.5 -49.5q-203 0 -367 95t-256 261.5 t-92 370.5z" />
<glyph unicode="D" horiz-adv-x="1423" d="M150 0v1424h512q164 0 296 -55t217.5 -151.5t130.5 -225.5t45 -280q0 -153 -46.5 -283t-132.5 -225.5t-217.5 -149.5t-294.5 -54h-510zM478 287h151q205 0 297.5 99t92.5 323q0 229 -94 328.5t-291 99.5h-156v-850z" />
<glyph unicode="E" horiz-adv-x="1179" d="M150 0v1424h936v-286h-609v-278h529v-284h-529v-290h623v-286h-950z" />
<glyph unicode="F" horiz-adv-x="1147" d="M150 0v1424h940v-286h-613v-305h515v-285h-515v-548h-327z" />
<glyph unicode="G" horiz-adv-x="1479" d="M69 705q0 207 94 376.5t259.5 266.5t367.5 97q144 0 283.5 -50t239.5 -139l-142 -220q-164 120 -345 120q-191 0 -306.5 -130t-115.5 -324q0 -84 24 -161t69.5 -139t119.5 -98.5t166 -36.5q128 0 219 68.5t99 188.5h-310v257h647q0 -206 -48 -361t-136 -250.5 t-207 -142.5t-267 -47q-172 0 -310.5 61.5t-224.5 164.5t-131 231t-45 268z" />
<glyph unicode="H" horiz-adv-x="1474" d="M150 0v1424h332v-562h510v562h333v-1424h-333v575h-510v-575h-332z" />
<glyph unicode="I" horiz-adv-x="632" d="M150 0v1424h332v-1424h-332z" />
<glyph unicode="J" horiz-adv-x="1053" d="M1 249l213 158q72 -126 197 -126q84 0 133 51.5t49 154.5v937h322v-988q0 -198 -126 -327t-342 -129q-307 0 -446 269z" />
<glyph unicode="K" horiz-adv-x="1353" d="M150 0v1424h332v-523h73l397 523h369l-496 -661l561 -763h-390l-444 604h-70v-604h-332z" />
<glyph unicode="L" horiz-adv-x="1091" d="M150 0v1424h328v-1138h591v-286h-919z" />
<glyph unicode="M" horiz-adv-x="1832" d="M124 0l56 1424h356l388 -820l382 820h347l54 -1424h-339l-28 884l-311 -695h-226l-324 692l-32 -881h-323z" />
<glyph unicode="N" horiz-adv-x="1492" d="M150 0v1424h350l534 -897l-6 897h315v-1424h-356l-527 884l6 -884h-316z" />
<glyph unicode="O" horiz-adv-x="1617" d="M68 713q0 211 98 379t267 260.5t376 92.5q155 0 292 -54.5t235.5 -150t156 -232t57.5 -294.5q0 -210 -97 -378t-266 -262t-378 -94q-157 0 -294 55t-235.5 151.5t-155 233t-56.5 293.5zM403 713q0 -197 114 -321t292 -124t291 124t113 321t-113.5 320t-290.5 123 t-291.5 -123t-114.5 -320z" />
<glyph unicode="P" horiz-adv-x="1251" d="M150 0v1424h538q246 0 384.5 -130.5t138.5 -342.5q0 -217 -142 -351.5t-380 -134.5h-214v-465h-325zM475 749h190q104 0 161.5 52.5t57.5 145.5t-58 144t-161 51h-190v-393z" />
<glyph unicode="Q" horiz-adv-x="1617" d="M68 713q0 211 98 379t267 260.5t376 92.5q155 0 292 -54.5t235.5 -150t156 -232t57.5 -294.5q0 -282 -174 -485l91 -98l-212 -175l-97 104q-158 -80 -349 -80q-157 0 -294 55t-235.5 151.5t-155 233t-56.5 293.5zM403 713q0 -197 114 -321t292 -124q74 0 136 22l-194 211 l207 179l197 -212q58 107 58 245q0 197 -113.5 320t-290.5 123t-291.5 -123t-114.5 -320z" />
<glyph unicode="R" horiz-adv-x="1298" d="M150 0v1424h531q238 0 378.5 -126t140.5 -331q0 -143 -69 -251t-193 -164l336 -552h-388l-280 501h-130v-501h-326zM476 785h180q101 0 157 46t56 131q0 87 -58 133.5t-155 46.5h-180v-357z" />
<glyph unicode="S" horiz-adv-x="1191" d="M50 189l144 225q201 -139 392 -139q94 0 149.5 34t55.5 100q0 46 -30 78t-79.5 49t-112.5 35t-128.5 33t-128.5 45.5t-112.5 71t-79.5 111t-30 163.5q0 109 40.5 196t111.5 141.5t162.5 83.5t197.5 29q138 0 269 -47t234 -129l-140 -219q-172 108 -344 108 q-93 0 -148.5 -36t-55.5 -102q0 -46 30.5 -78.5t80.5 -48.5t113.5 -33t130 -31.5t130 -44.5t113.5 -71t80.5 -113t30.5 -167q0 -148 -71 -252t-187 -152.5t-265 -48.5q-303 0 -553 209z" />
<glyph unicode="T" horiz-adv-x="1198" d="M34 1137v287h1130v-287h-399v-1137h-333v1137h-398z" />
<glyph unicode="U" horiz-adv-x="1409" d="M135 526v898h329v-899q0 -111 71.5 -181.5t179.5 -70.5q105 0 170.5 67t65.5 185v899h324v-897q0 -246 -158.5 -396.5t-412.5 -150.5q-255 0 -412 150t-157 396z" />
<glyph unicode="V" horiz-adv-x="1275" d="M7 1424h357l282 -916l282 916h342l-493 -1424h-279z" />
<glyph unicode="W" horiz-adv-x="1944" d="M12 1424h358l243 -910l223 722h284l233 -729l239 917h342l-454 -1424h-287l-228 688l-219 -688h-284z" />
<glyph unicode="X" d="M-14 0l511 726l-487 698h397l293 -437l297 437h376l-480 -682l504 -742h-391l-320 484l-320 -484h-380z" />
<glyph unicode="Y" horiz-adv-x="1365" d="M4 1424h382l303 -528l322 528h357l-522 -835v-589h-327v586z" />
<glyph unicode="Z" horiz-adv-x="1218" d="M67 0v227l645 919h-622v278h1046v-230l-652 -911h661v-283h-1078z" />
<glyph unicode="[" horiz-adv-x="714" d="M161 -335v1809h488v-245h-195v-1316h194v-248h-487z" />
<glyph unicode="\" horiz-adv-x="936" d="M48 1474h259l578 -1638h-259z" />
<glyph unicode="]" horiz-adv-x="714" d="M65 1229v245h488v-1809h-487v248h195v1316h-196z" />
<glyph unicode="^" horiz-adv-x="1066" d="M68 597l355 827h220l355 -827h-263l-202 473l-202 -473h-263z" />
<glyph unicode="_" horiz-adv-x="1255" d="M109 -185h1038v-103h-1038v103z" />
<glyph unicode="`" horiz-adv-x="519" d="M-21 1477h313l187 -333h-242z" />
<glyph unicode="a" horiz-adv-x="1102" d="M51 303q0 151 116 241.5t311 90.5q89 0 181 -20v30q0 129 -183 129q-145 0 -270 -69l-90 199q173 118 425 118q207 0 318 -93t111 -273v-304q0 -65 14.5 -96t54.5 -54l-36 -220q-271 0 -313 129q-46 -69 -123 -100t-160 -31q-149 0 -252.5 89.5t-103.5 233.5zM348 321 q0 -52 37 -76.5t91 -24.5q73 0 128 40.5t55 111.5v45q-66 16 -134 16q-177 0 -177 -112z" />
<glyph unicode="b" horiz-adv-x="1212" d="M115 0v1437l313 53v-576q102 108 274 108q94 0 170.5 -29.5t126.5 -78.5t84 -115.5t49 -138.5t15 -150q0 -151 -53.5 -270.5t-158 -189.5t-242.5 -70q-204 0 -302 145l-21 -125h-255zM418 503q0 -105 52.5 -178.5t153.5 -73.5q99 0 155.5 71t56.5 180q0 107 -55.5 176 t-155.5 69t-153.5 -69t-53.5 -175z" />
<glyph unicode="c" horiz-adv-x="1011" d="M63 495q0 160 71 281.5t189 183.5t263 62q107 0 208 -34.5t171 -92.5l-129 -212q-94 68 -204 68q-112 0 -183 -69t-71 -179q0 -111 71 -181.5t183 -70.5q110 0 204 71l147 -200q-81 -66 -184.5 -104t-214.5 -38q-80 0 -155 20t-141.5 62t-116.5 102t-79 145.5t-29 185.5z " />
<glyph unicode="d" horiz-adv-x="1212" d="M66 510q0 78 15 150t49 138.5t84 115.5t126.5 78.5t170.5 29.5q172 0 274 -108v523l313 53v-1490h-255l-21 125q-98 -145 -302 -145q-138 0 -242.5 70t-158 189.5t-53.5 270.5zM377 502q0 -109 56.5 -180t155.5 -71q101 0 153.5 73.5t52.5 178.5q0 106 -53.5 175 t-153.5 69t-155.5 -69t-55.5 -176z" />
<glyph unicode="e" horiz-adv-x="1105" d="M63 495q0 161 69.5 282.5t185 183t258.5 61.5q220 0 349 -143.5t129 -368.5q0 -45 -4 -95h-676q11 -92 75.5 -145t167.5 -53q120 0 235 83l138 -190q-78 -61 -183 -95.5t-217 -34.5q-109 0 -204 33.5t-167.5 96.5t-114 162t-41.5 223zM377 603h377q-10 79 -57.5 126.5 t-126.5 47.5t-130.5 -47t-62.5 -127z" />
<glyph unicode="f" horiz-adv-x="784" d="M41 742v260h169v116q0 182 96.5 277t279.5 95q91 0 236 -34l-36 -246q-74 17 -124 17q-80 0 -109.5 -42t-29.5 -132v-51h238v-260h-238v-742h-313v742h-169z" />
<glyph unicode="g" horiz-adv-x="1211" d="M66 507q0 225 126 370t329 145q205 0 299 -144l21 124h256v-938q0 -239 -145 -372t-387 -133q-271 0 -452 163l140 190q121 -90 272 -90q118 0 188.5 65.5t70.5 202.5v31q-99 -109 -276 -109q-113 0 -200 42t-138.5 113t-77.5 157.5t-26 182.5zM377 509q0 -102 56 -168 t155 -66t152 67t53 168q0 102 -53 171.5t-152 69.5t-155 -69.5t-56 -172.5z" />
<glyph unicode="h" horiz-adv-x="1166" d="M115 0v1437l313 53v-566q97 98 269 98q180 0 272.5 -109.5t92.5 -301.5v-611h-314v584q0 76 -37.5 118t-110.5 42q-78 0 -124 -46.5t-46 -125.5v-572h-315z" />
<glyph unicode="i" horiz-adv-x="543" d="M90 1305q0 76 53 129.5t129 53.5q75 0 128.5 -53.5t53.5 -129.5q0 -75 -53.5 -128.5t-128.5 -53.5q-76 0 -129 53.5t-53 128.5zM115 0v1002h313v-1002h-313z" />
<glyph unicode="j" horiz-adv-x="543" d="M-79 -189q96 24 144.5 74t48.5 165v952h314v-1048q0 -84 -28 -152.5t-74 -113t-107.5 -74.5t-126 -42.5t-132.5 -12.5zM89 1305q0 76 53.5 129.5t128.5 53.5q76 0 129 -53.5t53 -129.5q0 -75 -53 -128.5t-129 -53.5q-75 0 -128.5 53.5t-53.5 128.5z" />
<glyph unicode="k" horiz-adv-x="1123" d="M115 0v1437l313 53v-807h70l224 319h371l-316 -451l349 -551h-370l-256 406h-72v-406h-313z" />
<glyph unicode="l" horiz-adv-x="563" d="M108 250v1187l312 53v-1109q0 -67 16.5 -100t64.5 -57l-41 -244q-93 0 -171.5 29t-129.5 92t-51 149z" />
<glyph unicode="m" horiz-adv-x="1711" d="M114 0v1002h255l21 -118q49 67 123.5 102.5t159.5 35.5q84 0 159.5 -33t121.5 -95q49 64 129.5 96t171.5 32q180 0 266 -108.5t86 -302.5v-611h-314v591q0 153 -130 153h-3q-72 0 -108 -48q-38 -50 -37 -129v-567h-310v591q0 72 -32 112.5t-98 40.5q-72 0 -109.5 -49.5 t-37.5 -127.5v-567h-314z" />
<glyph unicode="n" horiz-adv-x="1155" d="M114 0v1002h255l21 -118q101 138 302 138q178 0 268.5 -110t90.5 -301v-611h-314v591q0 73 -37 113t-107 40q-78 0 -121.5 -48.5t-43.5 -128.5v-567h-314z" />
<glyph unicode="o" horiz-adv-x="1187" d="M62 501q0 155 70.5 274.5t191 183t270.5 63.5q149 0 269.5 -63t191 -182.5t70.5 -273.5q0 -155 -70.5 -275.5t-191.5 -184t-270 -63.5t-269.5 63.5t-191 183t-70.5 274.5zM374 500q0 -107 62.5 -178t156.5 -71t157.5 71t63.5 178t-63 177t-157 70q-95 0 -157.5 -69.5 t-62.5 -177.5z" />
<glyph unicode="p" horiz-adv-x="1212" d="M114 -441v1443h255l21 -126q100 146 302 146q138 0 242.5 -70t158 -189.5t53.5 -270.5q0 -78 -15 -150t-49 -138.5t-84.5 -115.5t-126.5 -78.5t-170 -29.5q-172 0 -274 108v-476zM417 498q0 -106 53.5 -174.5t153.5 -68.5t155.5 69t55.5 176q0 108 -57 179.5t-156 71.5 q-101 0 -153 -73.5t-52 -179.5z" />
<glyph unicode="q" horiz-adv-x="1212" d="M67 492q0 151 53.5 270.5t158 189.5t242.5 70q204 0 302 -146l21 126h255v-1390l-313 -53v529q-102 -108 -274 -108q-94 0 -170 29.5t-126.5 78.5t-84.5 115.5t-49 138.5t-15 150zM378 500q0 -107 55.5 -176t155.5 -69t153.5 68.5t53.5 174.5q0 105 -52.5 179t-153.5 74 q-99 0 -155.5 -71t-56.5 -180z" />
<glyph unicode="r" horiz-adv-x="795" d="M114 0v1002h255l24 -148h2q40 86 103 127t158 41q63 0 130 -23l-50 -290q-46 15 -96 15q-51 0 -89 -17.5t-61.5 -46t-37.5 -71.5t-19.5 -88t-5.5 -101v-400h-313z" />
<glyph unicode="s" horiz-adv-x="950" d="M50 148l129 172q148 -96 275 -96q125 0 125 73q0 31 -27.5 50.5t-71 30t-96 20.5t-105.5 29t-96.5 48.5t-71 85.5t-27.5 133q0 83 31 147.5t85.5 103t123.5 58t151 19.5q226 0 383 -135l-107 -177q-134 77 -250 77q-54 0 -83 -19t-29 -53q0 -27 21.5 -46t57 -29t80.5 -22 t92.5 -22.5t92.5 -33t80.5 -53t57 -82t21.5 -119.5q0 -161 -112.5 -244.5t-300.5 -83.5q-136 0 -231 42t-198 126z" />
<glyph unicode="t" horiz-adv-x="784" d="M31 742v260h164v298l313 52v-350h223v-260h-223v-306q0 -54 13.5 -90.5t42.5 -58.5t62.5 -34t86.5 -21l-37 -252q-75 0 -140 10.5t-129.5 37.5t-110 69t-73.5 110.5t-28 157.5v377h-164z" />
<glyph unicode="u" horiz-adv-x="1149" d="M104 391v611h314v-592q0 -73 35.5 -113t106.5 -40q77 0 119 48.5t42 129.5v567h314v-1002h-256l-20 117q-99 -137 -298 -137q-179 0 -268 109.5t-89 301.5z" />
<glyph unicode="v" horiz-adv-x="1084" d="M19 1002h334l195 -673l212 673h313l-379 -1002h-310z" />
<glyph unicode="w" horiz-adv-x="1633" d="M22 1002h335l155 -642l160 642h292l170 -642l167 642h312l-329 -1002h-303l-167 643l-161 -643h-303z" />
<glyph unicode="x" horiz-adv-x="1120" d="M1 0l374 513l-354 489h367l172 -263l182 263h343l-343 -473l387 -529h-369l-203 300l-207 -300h-349z" />
<glyph unicode="y" horiz-adv-x="1136" d="M17 1002h336l223 -657l241 657h314l-466 -1156q-65 -160 -158 -223.5t-210 -63.5q-97 0 -211 43l40 244q54 -16 105 -16q122 0 167 115l16 41z" />
<glyph unicode="z" horiz-adv-x="1022" d="M69 0v227l445 517h-418v258h845v-218l-456 -523h459v-261h-875z" />
<glyph unicode="{" horiz-adv-x="715" d="M52 458v223q89 10 117 85.5t28 284.5q0 83 11 144.5t35.5 106.5t57 75t83.5 49.5t107 30t135 17.5l28 -226q-39 -5 -68 -15.5t-47 -27.5t-29 -34.5t-15.5 -45t-6 -48.5t-1.5 -55v-101v-52.5t-1.5 -51t-4.5 -54t-8.5 -49t-15 -48.5t-22.5 -39t-31.5 -35.5t-41.5 -23.5 q42 -20 69 -57.5t38.5 -92t14.5 -96.5t3 -104v-102q0 -41 2 -65t10.5 -55.5t26 -50t49.5 -33.5t79 -21l-28 -226q-79 7 -135 17t-107 30t-83.5 49.5t-57 74.5t-35.5 107t-11 145q0 211 -27 285.5t-118 84.5z" />
<glyph unicode="|" horiz-adv-x="570" d="M160 -421v1891h250v-1891h-250z" />
<glyph unicode="}" horiz-adv-x="715" d="M61 -109q47 6 79.5 21t49.5 33.5t26 49.5t11 56t2 65v102q0 48 1.5 82t8.5 80.5t19.5 78.5t36.5 62.5t58 46.5q-21 8 -38 22t-29 27t-21.5 36t-15.5 38.5t-10 45.5t-6 44t-3 48.5t-1 45.5v46v101q0 41 -2 66t-11 56t-26 49t-49.5 33.5t-79.5 21.5l29 226q95 -8 158.5 -22 t118.5 -42.5t86 -74t48 -115.5t17 -169q0 -209 28 -284.5t117 -85.5v-223q-91 -10 -118 -84.5t-27 -285.5q0 -123 -24 -202t-81 -125t-130.5 -66t-192.5 -30z" />
<glyph unicode="~" horiz-adv-x="1249" d="M101 440q18 207 102.5 315.5t208.5 108.5q65 0 118 -17.5t87.5 -43t64 -51t62.5 -43t69 -17.5q82 0 112 164h239q-19 -207 -103 -315.5t-208 -108.5q-65 0 -118 17.5t-87.5 43t-64 50.5t-62.5 42.5t-69 17.5q-82 0 -111 -163h-240z" />
<glyph unicode="&#xa1;" horiz-adv-x="590" d="M108 905q0 78 55 133t133 55t132.5 -55t54.5 -133t-54.5 -133t-132.5 -55t-133 55t-55 133zM128 -352l32 954h271l32 -954h-335z" />
<glyph unicode="&#xa2;" horiz-adv-x="1067" d="M80 686q0 207 114.5 344t296.5 172v185h202v-181q172 -25 288 -121l-128 -212q-94 68 -204 68q-112 0 -183 -69t-71 -179q0 -111 70.5 -181.5t182.5 -70.5q109 0 205 71l146 -199q-136 -110 -306 -136v-182h-202v185q-85 16 -157.5 55.5t-130 101t-90.5 151.5t-33 198z " />
<glyph unicode="&#xa3;" horiz-adv-x="1174" d="M98 0v242q70 30 117.5 103.5t47.5 174.5q0 22 -1 34h-164v237h132q-10 77 -10 137q0 218 127.5 346t338.5 128q64 0 122.5 -13t114.5 -41.5t103 -80t78 -122.5l-204 -150q-70 120 -196 120q-169 0 -169 -194q0 -53 12 -130h224v-237h-191q1 -12 1 -35q0 -81 -16.5 -136 t-48.5 -113h555v-270h-973z" />
<glyph unicode="&#xa4;" horiz-adv-x="1332" d="M91 286l152 148q-69 114 -69 248t70 250l-153 151l172 172l154 -153q118 67 250 67q133 0 248 -66l152 152l174 -172l-152 -148q73 -115 73 -254q0 -131 -73 -248l152 -147l-174 -174l-152 153q-117 -67 -250 -67q-134 0 -250 67l-152 -153zM428 682q0 -100 68.5 -172 t168.5 -72q97 0 169 70.5t72 172.5t-69.5 175t-169.5 73q-98 0 -168.5 -72t-70.5 -175z" />
<glyph unicode="&#xa5;" horiz-adv-x="1273" d="M58 1382h344l236 -511l250 511h329l-313 -597h188v-190h-288l-12 -23v-115h300v-190h-300v-267h-318v267h-293v190h293v111l-14 27h-279v190h182z" />
<glyph unicode="&#xa6;" horiz-adv-x="517" d="M134 -311v653h249v-653h-249zM134 708v652h249v-652h-249z" />
<glyph unicode="&#xa7;" horiz-adv-x="1126" d="M71 586q0 160 174 263q-120 79 -120 226q0 92 40 164.5t107.5 116.5t150.5 66.5t175 22.5q217 0 378 -129l-107 -181q-44 30 -118.5 54.5t-147.5 24.5q-75 0 -118.5 -29t-43.5 -80q0 -43 34 -77t88 -57.5t119 -46.5t130.5 -51.5t119.5 -65t88 -95.5t34 -134 q0 -154 -158 -256q128 -71 128 -235q0 -90 -41.5 -163.5t-111.5 -120t-158 -71.5t-185 -25q-75 0 -140 14t-118.5 41.5t-87 50t-76.5 57.5l131 178q142 -106 298 -106q85 0 130 28t45 75q0 36 -27.5 67t-72.5 53.5t-102.5 47.5t-117 48t-117 55t-102.5 68t-72.5 88 t-27.5 114zM329 641q0 -94 190 -161l177 -63q86 48 86 113q0 94 -192 160l-172 60q-43 -25 -66 -49.5t-23 -59.5z" />
<glyph unicode="&#xa8;" horiz-adv-x="889" d="M83 1296q0 63 43.5 106t106.5 43t105 -43t42 -106t-42 -106t-105 -43t-106.5 43t-43.5 106zM510 1296q0 63 43 106t106 43t105.5 -43t42.5 -106t-42.5 -106t-105.5 -43t-106 43t-43 106z" />
<glyph unicode="&#xa9;" horiz-adv-x="1615" d="M76 715q0 150 58 285t156 232.5t233.5 155t284.5 57.5q150 0 285.5 -57.5t233.5 -155t155.5 -232.5t57.5 -285q0 -120 -37 -232t-104.5 -202.5t-157 -158.5t-201.5 -105t-232 -37q-199 0 -367.5 98.5t-266.5 267.5t-98 369zM250 714q0 -158 73.5 -288t201.5 -204.5 t283 -74.5q116 0 219 44t177 119t117.5 180.5t43.5 223.5q0 157 -73.5 286t-201.5 203t-282 74q-155 0 -283 -74t-201.5 -203t-73.5 -286zM444 712q0 66 15 128.5t45.5 116.5t74 94.5t104 64t131.5 23.5q79 0 151.5 -30.5t128 -99t68.5 -164.5h-177q-11 66 -57 103t-111 37 q-84 0 -134.5 -72.5t-50.5 -199.5q0 -126 48.5 -196.5t134.5 -70.5q64 0 110.5 42t59.5 114h177q-13 -143 -112 -229.5t-236 -86.5q-120 0 -205 58t-125 152.5t-40 215.5z" />
<glyph unicode="&#xaa;" horiz-adv-x="833" d="M73 917q0 102 79.5 163.5t213.5 61.5q61 0 119 -13v20q0 87 -120 87q-100 0 -186 -48l-61 137q116 80 291 80q142 0 218 -63t76 -185v-206q0 -45 9.5 -65.5t37.5 -37.5l-24 -149q-188 2 -219 82q-58 -84 -189 -84q-103 0 -174 60.5t-71 159.5zM281 929q0 -35 24 -51.5 t60 -16.5q47 0 83.5 27.5t36.5 75.5v31q-37 10 -87 10q-117 0 -117 -76z" />
<glyph unicode="&#xab;" horiz-adv-x="1200" d="M62 521l301 426h281l-274 -426l274 -426h-281zM549 521l301 426h281l-273 -426l273 -426h-281z" />
<glyph unicode="&#xac;" horiz-adv-x="1259" d="M93 573v250h1014v-650h-262v400h-752z" />
<glyph unicode="&#xad;" horiz-adv-x="769" d="M109 422v239h552v-239h-552z" />
<glyph unicode="&#xae;" horiz-adv-x="1056" d="M73 990q0 190 132.5 322.5t322.5 132.5q189 0 322.5 -133t133.5 -322q0 -124 -61 -229.5t-166 -166.5t-229 -61t-229 61t-165.5 166t-60.5 230zM196 989q0 -142 96 -239.5t236 -97.5t236 97t96 240q0 142 -96 239t-236 97t-236 -97t-96 -239zM361 761v481h177 q192 0 192 -146q0 -99 -84 -132l99 -203h-131l-88 183h-47v-183h-118zM479 1046h48q87 0 87 49q0 25 -21.5 36t-67.5 11h-46v-96z" />
<glyph unicode="&#xaf;" horiz-adv-x="857" d="M106 1196v190h645v-190h-645z" />
<glyph unicode="&#xb0;" horiz-adv-x="795" d="M65 1112q0 137 97.5 235t235.5 98t235.5 -98t97.5 -235t-97.5 -235t-235.5 -98t-235.5 98t-97.5 235zM237 1112q0 -68 46.5 -114.5t114.5 -46.5t114.5 46.5t46.5 114.5t-46.5 114.5t-114.5 46.5t-114.5 -46.5t-46.5 -114.5z" />
<glyph unicode="&#xb1;" horiz-adv-x="1226" d="M107 -6v250h1013v-250h-1013zM107 646v249h377v307h259v-307h377v-249h-377v-307h-259v307h-377z" />
<glyph unicode="&#xb2;" horiz-adv-x="699" d="M41 1509q45 72 123.5 116t174.5 44q125 0 208 -71t83 -192q0 -63 -25.5 -118t-65 -93.5t-79.5 -69t-78.5 -60t-52.5 -51.5h312v-182h-588v136q29 64 78 119.5t96.5 91.5t92 69.5t71.5 70t27 77.5q0 42 -26.5 66t-67.5 24q-44 0 -86.5 -27.5t-72.5 -66.5z" />
<glyph unicode="&#xb3;" horiz-adv-x="693" d="M26 962l116 126q81 -86 175 -86q48 0 80 25.5t32 69.5q0 65 -74 84q-34 9 -148 11v153q107 0 146 16q45 17 45 58q0 31 -22.5 50.5t-63.5 19.5q-71 0 -157 -68l-100 134q47 51 118.5 83.5t157.5 32.5q122 0 203.5 -64.5t81.5 -172.5q0 -109 -89 -159q51 -24 83.5 -72.5 t32.5 -119.5q0 -82 -47.5 -143.5t-117.5 -89.5t-149 -28q-86 0 -165.5 36t-137.5 104z" />
<glyph unicode="&#xb4;" horiz-adv-x="519" d="M41 1144l187 333h312l-258 -333h-241z" />
<glyph unicode="&#xb5;" horiz-adv-x="1236" d="M151 -421v1423h285v-593q0 -82 38 -133.5t105 -51.5q103 0 143.5 91t40.5 261v426h287v-603q0 -36 0.5 -53.5t2.5 -45.5t7.5 -42.5t15 -32t25 -28.5t36.5 -18v-199q-228 0 -306 139q-97 -139 -255 -139q-78 0 -140 46v-447h-285z" />
<glyph unicode="&#xb6;" horiz-adv-x="1377" d="M57 987q0 214 146.5 325.5t405.5 111.5h575v-1747h-221v1552h-205v-1552h-221v876q-213 11 -346.5 133.5t-133.5 300.5z" />
<glyph unicode="&#xb7;" horiz-adv-x="556" d="M90 584q0 78 55 133t133 55q77 0 132.5 -55t55.5 -133t-55 -132.5t-133 -54.5t-133 54.5t-55 132.5z" />
<glyph unicode="&#xb8;" horiz-adv-x="452" d="M-10 -394l43 113q74 -37 135 -37q63 0 63 50q0 21 -18.5 36.5t-48 22.5t-56.5 10t-53 3l116 196h168l-74 -114q64 -11 108.5 -50t44.5 -100q0 -62 -36 -103.5t-89.5 -58.5t-120.5 -17q-99 0 -182 49z" />
<glyph unicode="&#xb9;" horiz-adv-x="664" d="M69 832v182h181v372h-177v159q83 0 148.5 29.5t78.5 86.5h163v-647h167v-182h-561z" />
<glyph unicode="&#xba;" horiz-adv-x="863" d="M67 1051q0 159 103.5 256.5t261.5 97.5q157 0 260.5 -97t103.5 -255q0 -159 -104 -257.5t-261 -98.5t-260.5 97.5t-103.5 256.5zM286 1051q0 -72 41 -120.5t104 -48.5q62 0 104.5 48.5t42.5 120.5t-41.5 119t-104.5 47t-104.5 -47t-41.5 -119z" />
<glyph unicode="&#xbb;" horiz-adv-x="1200" d="M69 95l274 426l-274 426h281l301 -426l-301 -426h-281zM557 95l274 426l-274 426h280l302 -426l-302 -426h-280z" />
<glyph unicode="&#xbc;" horiz-adv-x="1725" d="M86 595v184h181v371h-177v159q83 0 148.5 29.5t78.5 86.5h164v-646h166v-184h-561zM396 -41l849 1506h216l-848 -1506h-217zM985 158v126l394 546h169v-507h115v-165h-118v-158h-204v158h-356zM1182 323h164v218z" />
<glyph unicode="&#xbd;" horiz-adv-x="1823" d="M80 595v184h181v371h-177v159q83 0 148.5 29.5t78.5 86.5h163v-646h167v-184h-561zM391 -41l848 1506h217l-849 -1506h-216zM1156 677q45 72 123 116t175 44q125 0 208.5 -71.5t83.5 -191.5q0 -63 -25.5 -118t-65 -93.5t-80 -69t-78.5 -60t-52 -51.5h312v-182h-588v136 q29 64 78 119t96.5 91.5t92 70t71.5 70t27 77.5q0 42 -26.5 66.5t-67.5 24.5q-44 0 -87 -28t-73 -67z" />
<glyph unicode="&#xbe;" horiz-adv-x="1692" d="M60 726l116 126q84 -87 174 -87q48 0 80.5 26.5t32.5 69.5q0 63 -75 83q-38 10 -147 12v152q103 0 145 17q45 17 45 57q0 31 -22 50t-64 19q-73 0 -156 -67l-101 134q47 51 119.5 84t157.5 33q122 0 203 -65.5t81 -172.5q0 -108 -89 -158q117 -58 117 -193 q0 -82 -48 -143.5t-117.5 -89.5t-148.5 -28q-86 0 -166 36.5t-137 104.5zM361 -41l848 1506h217l-849 -1506h-216zM949 158v126l395 546h168v-507h116v-165h-118v-158h-204v158h-357zM1147 323h163v218z" />
<glyph unicode="&#xbf;" horiz-adv-x="1071" d="M67 60q0 75 20.5 133.5t53 94t71.5 63.5t78 51.5t71.5 49t53 63t20.5 87.5h278q0 -72 -11 -130t-29.5 -96.5t-43 -69t-51 -50.5t-53.5 -37t-51.5 -32t-43 -32t-29.5 -41.5t-11 -56.5q0 -66 45.5 -104t131.5 -38q167 0 275 143l182 -167q-66 -119 -192.5 -191t-287.5 -72 q-97 0 -182 27.5t-151.5 79.5t-105 136t-38.5 189zM386 905q0 78 55 133t133 55t132.5 -55t54.5 -133t-54.5 -133t-132.5 -55t-133 55t-55 133z" />
<glyph unicode="&#xc0;" d="M6 0l496 1424h377l503 -1424h-359l-98 310h-482l-96 -310h-341zM274 1823h334l201 -269h-258zM525 583h316l-159 500z" />
<glyph unicode="&#xc1;" d="M6 0l496 1424h377l503 -1424h-359l-98 310h-482l-96 -310h-341zM525 583h316l-159 500zM587 1550l200 269h334l-276 -269h-258z" />
<glyph unicode="&#xc2;" d="M6 0l496 1424h377l503 -1424h-359l-98 310h-482l-96 -310h-341zM342 1549l269 270h177l273 -270h-239l-120 128l-123 -128h-237zM525 583h316l-159 500z" />
<glyph unicode="&#xc3;" d="M6 0l496 1424h377l503 -1424h-359l-98 310h-482l-96 -310h-341zM391 1548q11 130 66 200t129 70q41 0 76 -17.5t53.5 -38t38.5 -38t36 -17.5q44 0 60 106h159q-10 -130 -65.5 -200.5t-129.5 -70.5q-41 0 -75.5 17.5t-53 38t-38.5 38t-35 17.5q-45 0 -61 -105h-160z M525 583h316l-159 500z" />
<glyph unicode="&#xc4;" d="M6 0l496 1424h377l503 -1424h-359l-98 310h-482l-96 -310h-341zM340 1676q0 63 43.5 105.5t106.5 42.5t105 -42.5t42 -105.5t-42 -106t-105 -43t-106.5 43t-43.5 106zM525 583h316l-159 500zM767 1676q0 63 43.5 105.5t106.5 42.5t105 -42.5t42 -105.5t-42 -106t-105 -43 t-106.5 43t-43.5 106z" />
<glyph unicode="&#xc5;" d="M6 0l496 1424h377l503 -1424h-359l-98 310h-482l-96 -310h-341zM484 1748q0 89 63.5 152.5t152.5 63.5q90 0 153.5 -63.5t63.5 -152.5q0 -90 -63.5 -153.5t-153.5 -63.5q-89 0 -152.5 63.5t-63.5 153.5zM525 583h316l-159 500zM602 1748q0 -41 28.5 -70t69.5 -29t70 29 t29 70t-29 69.5t-70 28.5t-69.5 -28.5t-28.5 -69.5z" />
<glyph unicode="&#xc6;" horiz-adv-x="1877" d="M1 0l653 1424h1126v-286h-608v-277h528v-286h-528v-289h626v-286h-954v286h-360l-120 -286h-363zM590 559h254v579h-12z" />
<glyph unicode="&#xc7;" horiz-adv-x="1343" d="M68 707q0 206 94.5 375.5t260 266t367.5 96.5q143 0 282.5 -50t239.5 -139l-142 -220q-167 120 -344 120q-189 0 -306 -128t-117 -314q0 -120 49.5 -219t147.5 -160t225 -61q181 0 345 119l144 -227q-79 -72 -192.5 -119t-237.5 -61l-66 -103q65 -11 109 -50t44 -100 q0 -90 -70.5 -134t-174.5 -44q-100 0 -183 48l43 114q75 -38 135 -38q26 0 44.5 12.5t18.5 38.5q0 21 -18.5 36.5t-48 22.5t-56.5 10t-53 3l107 181q-186 16 -334 114t-230.5 257.5t-82.5 352.5z" />
<glyph unicode="&#xc8;" horiz-adv-x="1179" d="M150 0v1424h936v-286h-609v-278h529v-284h-529v-290h623v-286h-950zM246 1823h335l201 -269h-259z" />
<glyph unicode="&#xc9;" horiz-adv-x="1179" d="M150 0v1424h936v-286h-609v-278h529v-284h-529v-290h623v-286h-950zM460 1550l200 269h334l-276 -269h-258z" />
<glyph unicode="&#xca;" horiz-adv-x="1179" d="M150 0v1424h936v-286h-609v-278h529v-284h-529v-290h623v-286h-950zM265 1549l268 270h178l273 -270h-240l-119 128l-124 -128h-236z" />
<glyph unicode="&#xcb;" horiz-adv-x="1179" d="M150 0v1424h936v-286h-609v-278h529v-284h-529v-290h623v-286h-950zM261 1677q0 63 43.5 106t106.5 43t105.5 -43t42.5 -106t-42.5 -105.5t-105.5 -42.5t-106.5 42.5t-43.5 105.5zM688 1677q0 63 43.5 106t106.5 43t105.5 -43t42.5 -106t-42.5 -105.5t-105.5 -42.5 t-106.5 42.5t-43.5 105.5z" />
<glyph unicode="&#xcc;" horiz-adv-x="632" d="M-69 1823h334l201 -269h-259zM150 0v1424h332v-1424h-332z" />
<glyph unicode="&#xcd;" horiz-adv-x="632" d="M150 0v1424h332v-1424h-332zM176 1550l201 269h335l-276 -269h-260z" />
<glyph unicode="&#xce;" horiz-adv-x="632" d="M-43 1549l269 270h177l273 -270h-240l-120 128l-122 -128h-237zM150 0v1424h332v-1424h-332z" />
<glyph unicode="&#xcf;" horiz-adv-x="632" d="M-46 1677q0 63 43.5 106t106.5 43t105 -43t42 -106t-42 -105.5t-105 -42.5t-106.5 42.5t-43.5 105.5zM150 0v1424h332v-1424h-332zM381 1677q0 63 43.5 106t105.5 43q63 0 105.5 -43t42.5 -106t-42.5 -105.5t-105.5 -42.5t-106 42.5t-43 105.5z" />
<glyph unicode="&#xd0;" horiz-adv-x="1434" d="M36 596v226h125v602h512q164 0 296 -55t217.5 -151.5t130.5 -225.5t45 -280q0 -153 -46.5 -283t-132.5 -225.5t-217.5 -149.5t-294.5 -54h-510v596h-125zM489 287h151q205 0 297.5 99t92.5 323q0 229 -94 328.5t-291 99.5h-156v-315h245v-226h-245v-309z" />
<glyph unicode="&#xd1;" horiz-adv-x="1492" d="M150 0v1424h350l534 -897l-6 897h315v-1424h-356l-527 884l6 -884h-316zM447 1548q10 130 65.5 200t128.5 70q41 0 76 -17.5t53.5 -38t38 -38t35.5 -17.5q46 0 62 106h158q-10 -130 -65.5 -200.5t-129.5 -70.5q-41 0 -75.5 17.5t-53 38t-38 38t-35.5 17.5q-46 0 -62 -105 h-158z" />
<glyph unicode="&#xd2;" horiz-adv-x="1617" d="M68 713q0 211 98 379t267 260.5t376 92.5q155 0 292 -54.5t235.5 -150t156 -232t57.5 -294.5q0 -210 -97 -378t-266 -262t-378 -94q-157 0 -294 55t-235.5 151.5t-155 233t-56.5 293.5zM403 713q0 -197 114 -321t292 -124t291 124t113 321t-113.5 320t-290.5 123 t-291.5 -123t-114.5 -320zM439 1831h335l201 -269h-259z" />
<glyph unicode="&#xd3;" horiz-adv-x="1617" d="M68 713q0 211 98 379t267 260.5t376 92.5q155 0 292 -54.5t235.5 -150t156 -232t57.5 -294.5q0 -210 -97 -378t-266 -262t-378 -94q-157 0 -294 55t-235.5 151.5t-155 233t-56.5 293.5zM403 713q0 -197 114 -321t292 -124t291 124t113 321t-113.5 320t-290.5 123 t-291.5 -123t-114.5 -320zM657 1558l201 269h334l-276 -269h-259z" />
<glyph unicode="&#xd4;" horiz-adv-x="1617" d="M68 713q0 211 98 379t267 260.5t376 92.5q155 0 292 -54.5t235.5 -150t156 -232t57.5 -294.5q0 -210 -97 -378t-266 -262t-378 -94q-157 0 -294 55t-235.5 151.5t-155 233t-56.5 293.5zM403 713q0 -197 114 -321t292 -124t291 124t113 321t-113.5 320t-290.5 123 t-291.5 -123t-114.5 -320zM449 1558l269 270h177l273 -270h-240l-119 127l-123 -127h-237z" />
<glyph unicode="&#xd5;" horiz-adv-x="1617" d="M68 713q0 211 98 379t267 260.5t376 92.5q155 0 292 -54.5t235.5 -150t156 -232t57.5 -294.5q0 -210 -97 -378t-266 -262t-378 -94q-157 0 -294 55t-235.5 151.5t-155 233t-56.5 293.5zM403 713q0 -197 114 -321t292 -124t291 124t113 321t-113.5 320t-290.5 123 t-291.5 -123t-114.5 -320zM500 1554q11 130 66 200t128 70q41 0 76 -17.5t53.5 -38t38.5 -38t36 -17.5q45 0 61 106h158q-11 -130 -66 -200.5t-129 -70.5q-41 0 -75.5 17.5t-53 38t-38.5 38t-35 17.5q-45 0 -61 -105h-159z" />
<glyph unicode="&#xd6;" horiz-adv-x="1617" d="M68 713q0 211 98 379t267 260.5t376 92.5q155 0 292 -54.5t235.5 -150t156 -232t57.5 -294.5q0 -210 -97 -378t-266 -262t-378 -94q-157 0 -294 55t-235.5 151.5t-155 233t-56.5 293.5zM403 713q0 -197 114 -321t292 -124t291 124t113 321t-113.5 320t-290.5 123 t-291.5 -123t-114.5 -320zM447 1684q0 63 43.5 106t106.5 43t105 -43t42 -106t-42 -105.5t-105 -42.5t-106.5 42.5t-43.5 105.5zM874 1684q0 63 43.5 106t106.5 43t105 -43t42 -106t-42 -105.5t-105 -42.5t-106.5 42.5t-43.5 105.5z" />
<glyph unicode="&#xd7;" horiz-adv-x="1061" d="M76 311l287 287l-287 288l170 167l286 -286l287 287l165 -168l-285 -286l287 -287l-167 -170l-289 288l-287 -288z" />
<glyph unicode="&#xd8;" horiz-adv-x="1617" d="M68 713q0 211 98 379t267 260.5t376 92.5q185 0 342 -76l154 207l182 -146l-146 -196q100 -99 154.5 -232t54.5 -288q0 -210 -97 -378t-266 -262t-378 -94q-186 0 -343 76l-154 -208l-182 146l146 196q-99 99 -153.5 233t-54.5 290zM403 713q0 -148 68 -260l498 671 q-75 32 -160 32q-177 0 -291.5 -123t-114.5 -320zM647 300q75 -32 162 -32q178 0 291 124t113 321q0 146 -68 258z" />
<glyph unicode="&#xd9;" horiz-adv-x="1409" d="M135 526v898h329v-899q0 -111 71.5 -181.5t179.5 -70.5q105 0 170.5 67t65.5 185v899h324v-897q0 -246 -158.5 -396.5t-412.5 -150.5q-255 0 -412 150t-157 396zM345 1826h335l201 -269h-259z" />
<glyph unicode="&#xda;" horiz-adv-x="1409" d="M135 526v898h329v-899q0 -111 71.5 -181.5t179.5 -70.5q105 0 170.5 67t65.5 185v899h324v-897q0 -246 -158.5 -396.5t-412.5 -150.5q-255 0 -412 150t-157 396zM542 1553l200 269h335l-276 -269h-259z" />
<glyph unicode="&#xdb;" horiz-adv-x="1409" d="M135 526v898h329v-899q0 -111 71.5 -181.5t179.5 -70.5q105 0 170.5 67t65.5 185v899h324v-897q0 -246 -158.5 -396.5t-412.5 -150.5q-255 0 -412 150t-157 396zM356 1553l270 270h176l274 -270h-240l-120 128l-123 -128h-237z" />
<glyph unicode="&#xdc;" horiz-adv-x="1409" d="M135 526v898h329v-899q0 -111 71.5 -181.5t179.5 -70.5q105 0 170.5 67t65.5 185v899h324v-897q0 -246 -158.5 -396.5t-412.5 -150.5q-255 0 -412 150t-157 396zM343 1681q0 63 43.5 106t106.5 43t105 -43t42 -106t-42 -106t-105 -43t-106.5 43t-43.5 106zM770 1681 q0 63 43.5 106t106.5 43t105 -43t42 -106t-42 -106t-105 -43t-106.5 43t-43.5 106z" />
<glyph unicode="&#xdd;" horiz-adv-x="1365" d="M4 1424h382l303 -528l322 528h357l-522 -835v-589h-327v586zM538 1544l201 269h334l-276 -269h-259z" />
<glyph unicode="&#xde;" horiz-adv-x="1213" d="M150 0v1424h315v-238h219q213 0 352 -129t139 -330q0 -200 -139 -329.5t-351 -129.5h-220v-268h-315zM465 556h186q86 0 143.5 45.5t57.5 132.5q0 86 -57 126t-151 40h-179v-344z" />
<glyph unicode="&#xdf;" horiz-adv-x="1266" d="M115 0v1043q0 112 38.5 199t105.5 140t152.5 80.5t183.5 27.5q207 0 339.5 -110t132.5 -288q0 -56 -14.5 -101t-35.5 -73t-42 -51t-35.5 -45t-14.5 -44q0 -27 21 -49.5t52.5 -39t68.5 -43t68.5 -57.5t52.5 -85.5t21 -124.5q0 -181 -126.5 -290t-318.5 -109 q-108 0 -248 52l39 248q88 -30 176 -30q80 0 126.5 39t46.5 99q0 49 -33 85.5t-79.5 61t-93 50t-79.5 68t-33 100.5q0 43 18 76.5t44 55.5t51.5 44.5t43.5 56.5t18 78q0 74 -44.5 114.5t-113.5 40.5q-82 0 -129 -54.5t-47 -145.5v-1019h-312z" />
<glyph unicode="&#xe0;" horiz-adv-x="1102" d="M51 303q0 151 116 241.5t311 90.5q89 0 181 -20v30q0 129 -183 129q-145 0 -270 -69l-90 199q173 118 425 118q207 0 318 -93t111 -273v-304q0 -65 14.5 -96t54.5 -54l-36 -220q-271 0 -313 129q-46 -69 -123 -100t-160 -31q-149 0 -252.5 89.5t-103.5 233.5zM194 1464 h312l188 -333h-242zM348 322q0 -52 37 -77t91 -25q73 0 128 40.5t55 111.5v45q-66 16 -135 16q-76 0 -126 -25.5t-50 -85.5z" />
<glyph unicode="&#xe1;" horiz-adv-x="1102" d="M51 303q0 151 116 241.5t311 90.5q89 0 181 -20v30q0 129 -183 129q-145 0 -270 -69l-90 199q173 118 425 118q207 0 318 -93t111 -273v-304q0 -65 14.5 -96t54.5 -54l-36 -220q-271 0 -313 129q-46 -69 -123 -100t-160 -31q-149 0 -252.5 89.5t-103.5 233.5zM348 322 q0 -52 37 -77t91 -25q73 0 128 40.5t55 111.5v45q-66 16 -135 16q-76 0 -126 -25.5t-50 -85.5zM407 1131l187 333h312l-258 -333h-241z" />
<glyph unicode="&#xe2;" horiz-adv-x="1102" d="M51 303q0 151 116 241.5t311 90.5q89 0 181 -20v30q0 129 -183 129q-145 0 -270 -69l-90 199q173 118 425 118q207 0 318 -93t111 -273v-304q0 -65 14.5 -96t54.5 -54l-36 -220q-271 0 -313 129q-46 -69 -123 -100t-160 -31q-149 0 -252.5 89.5t-103.5 233.5zM222 1131 l251 333h166l256 -333h-225l-111 158l-115 -158h-222zM348 322q0 -52 37 -77t91 -25q73 0 128 40.5t55 111.5v45q-66 16 -135 16q-76 0 -126 -25.5t-50 -85.5z" />
<glyph unicode="&#xe3;" horiz-adv-x="1102" d="M51 303q0 151 116 241.5t311 90.5q89 0 181 -20v30q0 129 -183 129q-145 0 -270 -69l-90 199q173 118 425 118q207 0 318 -93t111 -273v-304q0 -65 14.5 -96t54.5 -54l-36 -220q-271 0 -313 129q-46 -69 -123 -100t-160 -31q-149 0 -252.5 89.5t-103.5 233.5zM254 1144 q11 136 66 209t129 73q41 0 75.5 -18t53 -40t38 -40t35.5 -18q46 0 62 110h158q-11 -136 -66 -209t-128 -73q-41 0 -75.5 18t-53.5 40t-39 40t-35 18q-45 0 -62 -110h-158zM348 322q0 -52 37 -77t91 -25q73 0 128 40.5t55 111.5v45q-66 16 -135 16q-76 0 -126 -25.5 t-50 -85.5z" />
<glyph unicode="&#xe4;" horiz-adv-x="1102" d="M51 303q0 151 116 241.5t311 90.5q89 0 181 -20v30q0 129 -183 129q-145 0 -270 -69l-90 199q173 118 425 118q207 0 318 -93t111 -273v-304q0 -65 14.5 -96t54.5 -54l-36 -220q-271 0 -313 129q-46 -69 -123 -100t-160 -31q-149 0 -252.5 89.5t-103.5 233.5zM195 1271 q0 63 43.5 105.5t106.5 42.5t105.5 -42.5t42.5 -105.5t-42.5 -106t-105.5 -43t-106.5 43t-43.5 106zM348 322q0 -52 37 -77t91 -25q73 0 128 40.5t55 111.5v45q-66 16 -135 16q-76 0 -126 -25.5t-50 -85.5zM622 1271q0 63 43.5 105.5t106.5 42.5t105 -42.5t42 -105.5 t-42 -106t-105 -43t-106.5 43t-43.5 106z" />
<glyph unicode="&#xe5;" horiz-adv-x="1102" d="M51 303q0 151 116 241.5t311 90.5q89 0 181 -20v30q0 129 -183 129q-145 0 -270 -69l-90 199q173 118 425 118q207 0 318 -93t111 -273v-304q0 -65 14.5 -96t54.5 -54l-36 -220q-271 0 -313 129q-46 -69 -123 -100t-160 -31q-149 0 -252.5 89.5t-103.5 233.5zM341 1338 q0 89 63.5 153t152.5 64q90 0 153.5 -64t63.5 -153q0 -90 -63.5 -153.5t-153.5 -63.5q-89 0 -152.5 63.5t-63.5 153.5zM348 322q0 -52 37 -77t91 -25q73 0 128 40.5t55 111.5v45q-66 16 -135 16q-76 0 -126 -25.5t-50 -85.5zM458 1338q0 -41 29 -70t70 -29t70.5 29t29.5 70 t-29.5 70t-70.5 29t-70 -29.5t-29 -69.5z" />
<glyph unicode="&#xe6;" horiz-adv-x="1701" d="M52 300q0 153 116 244t311 91q89 0 181 -20v30q0 129 -183 129q-145 0 -270 -69l-90 199q173 118 425 118q214 0 319 -98q132 98 311 98q221 0 349.5 -143.5t128.5 -368.5q0 -45 -4 -95h-676q11 -92 76 -145t168 -53q120 0 235 83l138 -189q-78 -62 -182.5 -96.5 t-217.5 -34.5q-226 0 -369 131q-141 -131 -370 -131q-184 0 -290 87t-106 233zM348 321q0 -52 37 -76.5t92 -24.5q73 0 128 40.5t55 111.5v45q-66 16 -135 16q-177 0 -177 -112zM973 603h378q-10 79 -57.5 126.5t-126.5 47.5t-131 -47t-63 -127z" />
<glyph unicode="&#xe7;" horiz-adv-x="1012" d="M63 495q0 120 41.5 220.5t112.5 167t166 103t203 36.5q107 0 208.5 -34.5t170.5 -92.5l-129 -212q-94 68 -203 68q-113 0 -183.5 -69t-70.5 -179q0 -111 70.5 -181.5t182.5 -70.5q108 0 204 71l147 -200q-128 -104 -292 -132l-61 -95q65 -11 109.5 -50t44.5 -100 q0 -90 -71 -134.5t-175 -44.5q-97 0 -182 49l42 113q71 -37 136 -37q26 0 44.5 12t18.5 38q0 21 -18.5 36.5t-48.5 22.5t-57 10t-53 3l101 170q-73 8 -139.5 32t-125 67.5t-101.5 101.5t-67.5 138t-24.5 173z" />
<glyph unicode="&#xe8;" horiz-adv-x="1105" d="M63 495q0 161 69.5 282.5t185 183t258.5 61.5q220 0 349 -143.5t129 -368.5q0 -45 -4 -95h-676q11 -92 75.5 -145t167.5 -53q120 0 235 83l138 -190q-78 -61 -183 -95.5t-217 -34.5q-109 0 -204 33.5t-167.5 96.5t-114 162t-41.5 223zM249 1464h313l188 -333h-242z M377 603h377q-10 79 -57.5 126.5t-126.5 47.5t-130.5 -47t-62.5 -127z" />
<glyph unicode="&#xe9;" horiz-adv-x="1105" d="M63 495q0 161 69.5 282.5t185 183t258.5 61.5q220 0 349 -143.5t129 -368.5q0 -45 -4 -95h-676q11 -92 75.5 -145t167.5 -53q120 0 235 83l138 -190q-78 -61 -183 -95.5t-217 -34.5q-109 0 -204 33.5t-167.5 96.5t-114 162t-41.5 223zM377 603h377q-10 79 -57.5 126.5 t-126.5 47.5t-130.5 -47t-62.5 -127zM436 1131l188 333h312l-258 -333h-242z" />
<glyph unicode="&#xea;" horiz-adv-x="1105" d="M63 495q0 161 69.5 282.5t185 183t258.5 61.5q220 0 349 -143.5t129 -368.5q0 -45 -4 -95h-676q11 -92 75.5 -145t167.5 -53q120 0 235 83l138 -190q-78 -61 -183 -95.5t-217 -34.5q-109 0 -204 33.5t-167.5 96.5t-114 162t-41.5 223zM242 1131l251 333h166l255 -333 h-224l-112 158l-115 -158h-221zM377 603h377q-10 79 -57.5 126.5t-126.5 47.5t-130.5 -47t-62.5 -127z" />
<glyph unicode="&#xeb;" horiz-adv-x="1105" d="M63 495q0 161 69.5 282.5t185 183t258.5 61.5q220 0 349 -143.5t129 -368.5q0 -45 -4 -95h-676q11 -92 75.5 -145t167.5 -53q120 0 235 83l138 -190q-78 -61 -183 -95.5t-217 -34.5q-109 0 -204 33.5t-167.5 96.5t-114 162t-41.5 223zM227 1271q0 63 43.5 105.5 t106.5 42.5t105 -42.5t42 -105.5t-42 -106t-105 -43t-106.5 43t-43.5 106zM377 603h377q-10 79 -57.5 126.5t-126.5 47.5t-130.5 -47t-62.5 -127zM654 1271q0 63 43 105.5t106 42.5t105.5 -42.5t42.5 -105.5t-42.5 -106t-105.5 -43t-106 43t-43 106z" />
<glyph unicode="&#xec;" horiz-adv-x="543" d="M-89 1463h312l188 -332h-242zM115 0v1002h313v-1002h-313z" />
<glyph unicode="&#xed;" horiz-adv-x="543" d="M115 0v1002h313v-1002h-313zM138 1131l188 332h312l-258 -332h-242z" />
<glyph unicode="&#xee;" horiz-adv-x="543" d="M-64 1131l251 333h166l255 -333h-224l-112 158l-115 -158h-221zM115 0v1002h313v-1002h-313z" />
<glyph unicode="&#xef;" horiz-adv-x="543" d="M-90 1268q0 63 43.5 106t106.5 43t105.5 -43t42.5 -106t-42.5 -105.5t-105.5 -42.5t-106.5 42.5t-43.5 105.5zM115 0v1002h313v-1002h-313zM337 1268q0 63 43.5 106t106.5 43t105 -43t42 -106t-42 -105.5t-105 -42.5t-106.5 42.5t-43.5 105.5z" />
<glyph unicode="&#xf0;" horiz-adv-x="1143" d="M66 489q0 227 136.5 365.5t340.5 138.5q43 0 73 -14h2q-43 75 -117 152l-156 -84l-123 127l146 78q-58 47 -141 100l199 125q78 -36 166 -106l147 80l124 -126l-138 -74q153 -157 252.5 -352t99.5 -393q0 -237 -142.5 -381.5t-367.5 -144.5q-221 0 -361 139.5t-140 369.5 zM361 490q0 -103 53 -173.5t152 -70.5t153 70.5t54 173.5q0 102 -53 170t-153 68t-153 -68t-53 -170z" />
<glyph unicode="&#xf1;" horiz-adv-x="1155" d="M114 0v1002h255l21 -118q101 138 302 138q178 0 268.5 -110t90.5 -301v-611h-314v591q0 73 -37 113t-107 40q-78 0 -121.5 -48.5t-43.5 -128.5v-567h-314zM283 1144q10 136 65 209t129 73q41 0 76 -18t53.5 -39.5t38 -39.5t35.5 -18q45 0 61 110h159q-10 -136 -65.5 -209 t-129.5 -73q-41 0 -75.5 18t-53 39.5t-38 39.5t-35.5 18q-46 0 -62 -110h-158z" />
<glyph unicode="&#xf2;" horiz-adv-x="1187" d="M62 501q0 155 70.5 274.5t191 183t270.5 63.5q149 0 269.5 -63t191 -182.5t70.5 -273.5q0 -155 -70.5 -275.5t-191.5 -184t-270 -63.5t-269.5 63.5t-191 183t-70.5 274.5zM261 1464h313l187 -333h-242zM374 500q0 -107 62.5 -178t156.5 -71t157.5 71t63.5 178t-63 177 t-157 70q-95 0 -157.5 -69.5t-62.5 -177.5z" />
<glyph unicode="&#xf3;" horiz-adv-x="1187" d="M62 501q0 155 70.5 274.5t191 183t270.5 63.5q149 0 269.5 -63t191 -182.5t70.5 -273.5q0 -155 -70.5 -275.5t-191.5 -184t-270 -63.5t-269.5 63.5t-191 183t-70.5 274.5zM374 500q0 -107 62.5 -178t156.5 -71t157.5 71t63.5 178t-63 177t-157 70q-95 0 -157.5 -69.5 t-62.5 -177.5zM435 1131l188 333h312l-258 -333h-242z" />
<glyph unicode="&#xf4;" horiz-adv-x="1187" d="M62 501q0 155 70.5 274.5t191 183t270.5 63.5q149 0 269.5 -63t191 -182.5t70.5 -273.5q0 -155 -70.5 -275.5t-191.5 -184t-270 -63.5t-269.5 63.5t-191 183t-70.5 274.5zM257 1131l251 333h166l256 -333h-225l-111 158l-115 -158h-222zM374 500q0 -107 62.5 -178 t156.5 -71t157.5 71t63.5 178t-63 177t-157 70q-95 0 -157.5 -69.5t-62.5 -177.5z" />
<glyph unicode="&#xf5;" horiz-adv-x="1187" d="M62 501q0 155 70.5 274.5t191 183t270.5 63.5q149 0 269.5 -63t191 -182.5t70.5 -273.5q0 -155 -70.5 -275.5t-191.5 -184t-270 -63.5t-269.5 63.5t-191 183t-70.5 274.5zM284 1144q11 136 66 209t129 73q41 0 76 -18t53.5 -40t38.5 -40t36 -18q44 0 60 110h159 q-10 -135 -65.5 -208.5t-128.5 -73.5q-41 0 -76 18t-53.5 40t-38.5 40t-35 18q-45 0 -61 -110h-160zM374 500q0 -107 62.5 -178t156.5 -71t157.5 71t63.5 178t-63 177t-157 70q-95 0 -157.5 -69.5t-62.5 -177.5z" />
<glyph unicode="&#xf6;" horiz-adv-x="1187" d="M62 501q0 155 70.5 274.5t191 183t270.5 63.5q149 0 269.5 -63t191 -182.5t70.5 -273.5q0 -155 -70.5 -275.5t-191.5 -184t-270 -63.5t-269.5 63.5t-191 183t-70.5 274.5zM232 1271q0 63 43.5 105.5t106.5 42.5t105 -42.5t42 -105.5t-42 -106t-105 -43t-106.5 43 t-43.5 106zM374 500q0 -107 62.5 -178t156.5 -71t157.5 71t63.5 178t-63 177t-157 70q-95 0 -157.5 -69.5t-62.5 -177.5zM659 1271q0 63 43 105.5t106 42.5t105 -42.5t42 -105.5t-42 -106t-105 -43t-106 43t-43 106z" />
<glyph unicode="&#xf7;" horiz-adv-x="1174" d="M80 473v250h1014v-250h-1014zM424 187q0 68 47.5 116t115.5 48t116 -48t48 -116t-48 -115.5t-116 -47.5t-115.5 47.5t-47.5 115.5zM424 1010q0 68 47.5 115.5t115.5 47.5t116 -47.5t48 -115.5q0 -69 -48 -117t-116 -48t-115.5 48t-47.5 117z" />
<glyph unicode="&#xf8;" horiz-adv-x="1187" d="M62 501q0 155 70.5 274.5t191 183t270.5 63.5q128 0 236 -47l104 153l116 -83l-99 -146q83 -69 128.5 -170.5t45.5 -225.5q0 -155 -70.5 -275.5t-191.5 -184t-270 -63.5q-128 0 -234 47l-105 -154l-116 83l99 147q-83 70 -129 171.5t-46 226.5zM374 500q0 -81 36 -142 l256 376q-37 13 -72 13q-95 0 -157.5 -69.5t-62.5 -177.5zM520 264q33 -13 73 -13q94 0 157.5 71t63.5 178q0 80 -38 142z" />
<glyph unicode="&#xf9;" horiz-adv-x="1149" d="M104 391v611h314v-592q0 -73 35.5 -113t106.5 -40q77 0 119 48.5t42 129.5v567h314v-1002h-256l-20 117q-99 -137 -298 -137q-179 0 -268 109.5t-89 301.5zM232 1465h312l188 -333h-242z" />
<glyph unicode="&#xfa;" horiz-adv-x="1149" d="M104 391v611h314v-592q0 -73 35.5 -113t106.5 -40q77 0 119 48.5t42 129.5v567h314v-1002h-256l-20 117q-99 -137 -298 -137q-179 0 -268 109.5t-89 301.5zM415 1132l188 333h312l-258 -333h-242z" />
<glyph unicode="&#xfb;" horiz-adv-x="1149" d="M104 391v611h314v-592q0 -73 35.5 -113t106.5 -40q77 0 119 48.5t42 129.5v567h314v-1002h-256l-20 117q-99 -137 -298 -137q-179 0 -268 109.5t-89 301.5zM244 1132l251 333h166l255 -333h-224l-111 158l-115 -158h-222z" />
<glyph unicode="&#xfc;" horiz-adv-x="1149" d="M104 391v611h314v-592q0 -73 35.5 -113t106.5 -40q77 0 119 48.5t42 129.5v567h314v-1002h-256l-20 117q-99 -137 -298 -137q-179 0 -268 109.5t-89 301.5zM207 1270q0 63 43.5 106t106.5 43t105 -43t42 -106t-42 -106t-105 -43t-106.5 43t-43.5 106zM634 1270 q0 63 43.5 106t106.5 43t105 -43t42 -106t-42 -106t-105 -43t-106.5 43t-43.5 106z" />
<glyph unicode="&#xfd;" horiz-adv-x="1136" d="M17 1002h336l223 -657l241 657h314l-466 -1156q-65 -160 -158 -223.5t-210 -63.5q-97 0 -211 43l40 244q54 -16 105 -16q122 0 167 115l16 41zM444 1150l187 332h312l-258 -332h-241z" />
<glyph unicode="&#xfe;" horiz-adv-x="1212" d="M115 -441v1878l313 53v-576q102 108 276 108q93 0 169 -29.5t126 -78.5t84 -115.5t49 -138t15 -149.5q0 -149 -52.5 -268.5t-157.5 -191t-246 -71.5q-169 0 -263 100v-468zM417 504q0 -107 53.5 -179t154.5 -72q100 0 155.5 71.5t55.5 179.5q0 107 -55.5 176t-156.5 69 q-102 0 -154.5 -70t-52.5 -175z" />
<glyph unicode="&#xff;" horiz-adv-x="1136" d="M17 1002h336l223 -657l241 657h314l-466 -1156q-65 -160 -158 -223.5t-210 -63.5q-97 0 -211 43l40 244q54 -16 105 -16q122 0 167 115l16 41zM231 1287q0 63 43.5 106t106.5 43t105 -43t42 -106t-42 -105.5t-105 -42.5t-106.5 42.5t-43.5 105.5zM658 1287q0 63 43.5 106 t106.5 43t105 -43t42 -106t-42 -105.5t-105 -42.5t-106.5 42.5t-43.5 105.5z" />
<glyph unicode="&#x152;" horiz-adv-x="2167" d="M68 713q0 211 98 379t267 260.5t376 92.5q177 0 328 -71v50h937v-286h-609v-278h528v-284h-528v-290h624v-286h-952v50q-149 -70 -329 -70q-156 0 -293 55t-235.5 151.5t-155 233t-56.5 293.5zM403 713q0 -197 114 -321t292 -124q106 0 191.5 48t136.5 135v522 q-52 87 -137 135t-192 48q-177 0 -291 -123t-114 -320z" />
<glyph unicode="&#x153;" horiz-adv-x="1850" d="M62 501q0 155 70.5 274.5t191 183t270.5 63.5q223 0 369 -138q141 138 357 138q221 0 350 -143.5t129 -368.5q0 -32 -5 -95h-675q11 -92 75.5 -145t167.5 -53q120 0 235 83l138 -189q-78 -62 -182.5 -96.5t-217.5 -34.5q-231 0 -374 137q-145 -137 -368 -137 q-149 0 -269.5 63.5t-191 183t-70.5 274.5zM374 500q0 -107 62.5 -178t156.5 -71t157.5 71t63.5 178t-63 177t-157 70q-95 0 -157.5 -69.5t-62.5 -177.5zM1122 603h377q-11 79 -58 126.5t-126 47.5q-78 0 -130 -47t-63 -127z" />
<glyph unicode="&#x178;" horiz-adv-x="1365" d="M4 1424h382l303 -528l322 528h357l-522 -835v-589h-327v586zM338 1671q0 63 43.5 106t106.5 43t105 -43t42 -106t-42 -105.5t-105 -42.5t-106.5 42.5t-43.5 105.5zM765 1671q0 63 43 106t106 43t105.5 -43t42.5 -106t-42.5 -105.5t-105.5 -42.5t-106 42.5t-43 105.5z" />
<glyph unicode="&#x2c6;" horiz-adv-x="750" d="M39 1144l251 333h166l255 -333h-224l-112 158l-114 -158h-222z" />
<glyph unicode="&#x2dc;" horiz-adv-x="760" d="M71 1165q11 136 66 209t129 73q41 0 76 -18t53.5 -39.5t38 -39.5t35.5 -18q45 0 61 110h159q-11 -136 -66 -209.5t-129 -73.5q-41 0 -75.5 18t-53 40t-38.5 40t-35 18q-45 0 -62 -110h-159z" />
<glyph unicode="&#x2000;" horiz-adv-x="982" />
<glyph unicode="&#x2001;" horiz-adv-x="1964" />
<glyph unicode="&#x2002;" horiz-adv-x="982" />
<glyph unicode="&#x2003;" horiz-adv-x="1964" />
<glyph unicode="&#x2004;" horiz-adv-x="654" />
<glyph unicode="&#x2005;" horiz-adv-x="491" />
<glyph unicode="&#x2006;" horiz-adv-x="327" />
<glyph unicode="&#x2007;" horiz-adv-x="327" />
<glyph unicode="&#x2008;" horiz-adv-x="245" />
<glyph unicode="&#x2009;" horiz-adv-x="392" />
<glyph unicode="&#x200a;" horiz-adv-x="109" />
<glyph unicode="&#x2010;" horiz-adv-x="769" d="M109 422v239h552v-239h-552z" />
<glyph unicode="&#x2011;" horiz-adv-x="769" d="M109 422v239h552v-239h-552z" />
<glyph unicode="&#x2012;" horiz-adv-x="769" d="M109 422v239h552v-239h-552z" />
<glyph unicode="&#x2013;" horiz-adv-x="1207" d="M110 427v228h987v-228h-987z" />
<glyph unicode="&#x2014;" horiz-adv-x="2161" d="M110 427v228h1942v-228h-1942z" />
<glyph unicode="&#x2018;" horiz-adv-x="543" d="M68 1016q0 151 105.5 289t260.5 185l53 -125q-85 -45 -113 -72q-46 -45 -47 -100q0 -32 15.5 -62t34 -50.5t34 -53.5t15.5 -70q0 -71 -49 -123t-126 -52q-87 0 -135 67.5t-48 166.5z" />
<glyph unicode="&#x2019;" horiz-adv-x="545" d="M68 907q84 45 112 70q48 45 48 101q0 32 -15.5 62t-34.5 51t-34.5 54t-15.5 69q0 71 49 123.5t127 52.5q87 0 135 -68t48 -167q0 -151 -106 -289t-261 -184z" />
<glyph unicode="&#x201a;" horiz-adv-x="529" d="M23 -246q82 44 109 67q50 46 51 104q0 32 -15.5 62t-34 51t-34 54.5t-15.5 69.5q0 71 48.5 123t126.5 52q87 0 135 -68t48 -166q0 -151 -105.5 -290t-261.5 -185z" />
<glyph unicode="&#x201c;" horiz-adv-x="988" d="M68 1016q0 151 105.5 289t261.5 185l52 -125q-85 -45 -113 -72q-46 -45 -47 -100q0 -32 15.5 -62t34 -51t34 -54t15.5 -69q0 -71 -48.5 -123t-126.5 -52q-87 0 -135 68t-48 166zM512 1016q0 151 105.5 289t261.5 185l52 -125q-85 -45 -113 -72q-47 -44 -47 -100 q0 -32 15.5 -62t34.5 -51t34.5 -54t15.5 -69q0 -70 -49.5 -122.5t-126.5 -52.5q-87 0 -135 68t-48 166z" />
<glyph unicode="&#x201d;" horiz-adv-x="989" d="M68 907q84 45 112 70q48 45 48 101q0 32 -15.5 62t-34.5 51t-34.5 54t-15.5 69q0 71 49 123.5t127 52.5q87 0 135 -68t48 -167q0 -150 -106 -288.5t-261 -184.5zM512 907q84 45 112 70q48 45 48 101q0 32 -15.5 62t-34 51t-34 54t-15.5 69q0 71 49 123.5t126 52.5 q88 0 135.5 -68t47.5 -167q0 -150 -105.5 -288.5t-261.5 -184.5z" />
<glyph unicode="&#x201e;" horiz-adv-x="973" d="M23 -246q82 44 109 67q50 46 51 104q0 32 -15.5 62t-34 51t-34 54.5t-15.5 69.5q0 71 48.5 123t126.5 52q87 0 135 -68t48 -166q0 -151 -105.5 -290t-261.5 -185zM468 -246q82 44 109 68q50 45 50 103q0 32 -15.5 62t-34 51t-34 54.5t-15.5 69.5q0 71 49 123t127 52 q88 0 135 -67.5t47 -166.5q0 -151 -105.5 -290t-261.5 -185z" />
<glyph unicode="&#x2022;" horiz-adv-x="902" d="M113 684q0 140 99 239t239 99t239 -99t99 -239t-99 -239t-239 -99t-239 99t-99 239z" />
<glyph unicode="&#x2026;" horiz-adv-x="1848" d="M81 167q0 78 55 133t133 55q77 0 132.5 -55t55.5 -133t-55 -132.5t-133 -54.5t-133 54.5t-55 132.5zM737 167q0 78 55 133t133 55q77 0 132 -55t55 -133t-55 -132.5t-132 -54.5q-78 0 -133 54.5t-55 132.5zM1392 167q0 78 55 133t133 55q77 0 132 -55t55 -133t-55 -132.5 t-132 -54.5q-78 0 -133 54.5t-55 132.5z" />
<glyph unicode="&#x202f;" horiz-adv-x="392" />
<glyph unicode="&#x2039;" horiz-adv-x="712" d="M62 521l301 426h281l-274 -426l274 -426h-281z" />
<glyph unicode="&#x203a;" horiz-adv-x="712" d="M69 95l274 426l-274 426h281l301 -426l-301 -426h-281z" />
<glyph unicode="&#x205f;" horiz-adv-x="491" />
<glyph unicode="&#x20ac;" horiz-adv-x="1340" d="M61 484l47 154h99q-1 15 -1 47q0 20 2 60h-138l47 155h115q57 225 216 363.5t369 138.5q123 0 241 -49t201 -136l-134 -207q-126 109 -267 109q-104 0 -178.5 -59t-112.5 -160h447l-46 -155h-436q-2 -36 -2 -53q0 -20 2 -54h404l-46 -154h-323q39 -100 113.5 -158.5 t179.5 -58.5q143 0 266 108l135 -213q-79 -85 -200.5 -133.5t-248.5 -48.5q-214 0 -372.5 139t-211.5 365h-167z" />
<glyph unicode="&#x2122;" horiz-adv-x="1938" d="M64 1261v163h687v-163h-251v-696h-184v696h-252zM871 565v859h246l221 -552l217 552h244v-859h-185v544h-1l-217 -544h-123l-216 544h-1v-544h-185z" />
<glyph unicode="&#x25fc;" horiz-adv-x="1001" d="M0 0v1002h1002v-1002h-1002z" />
<glyph unicode="&#xfb01;" horiz-adv-x="1328" d="M41 742v260h169v116q0 182 96.5 277t279.5 95q83 0 210 -28l-35 -246q-57 11 -99 11q-80 0 -109.5 -42t-29.5 -132v-51h238v-260h-238v-742h-313v742h-169zM875 1305q0 76 53.5 129.5t128.5 53.5q76 0 129 -53.5t53 -129.5q0 -75 -53 -128.5t-129 -53.5 q-75 0 -128.5 53.5t-53.5 128.5zM900 0v1002h313v-1002h-313z" />
<glyph unicode="&#xfb02;" horiz-adv-x="1348" d="M41 742v260h169v116q0 182 96.5 277t279.5 95q83 0 210 -28l-35 -246q-55 11 -99 11q-79 0 -108.5 -42t-29.5 -132v-51h237v-260h-237v-742h-314v742h-169zM893 250v1187l313 53v-1109q0 -67 15.5 -100t63.5 -57l-39 -244q-94 0 -172 29t-129.5 92t-51.5 149z" />
</font>
</defs>
</svg>
